<?xml version="1.0" encoding="UTF-8"?>
<svg version="1.1" xmlns="http://www.w3.org/2000/svg" width="686" height="364">
<path d="M0 0 C2.3776221 1.76721808 4.73905899 2.67240966 7.51171875 3.71484375 C8.65253906 4.14539063 9.79335938 4.5759375 10.96875 5.01953125 C13.77892198 6.03494103 16.60861599 6.957832 19.4609375 7.84765625 C37.33724366 13.4467964 37.33724366 13.4467964 42.50390625 20.66015625 C44.12713987 23.87911105 44.60580413 26.64768629 45.07421875 30.21484375 C45.23277344 31.37628906 45.39132812 32.53773437 45.5546875 33.734375 C45.66425781 34.61480469 45.77382813 35.49523437 45.88671875 36.40234375 C46.47050293 36.56839111 47.05428711 36.73443848 47.65576172 36.90551758 C50.35795587 37.67456257 53.05983799 38.44469849 55.76171875 39.21484375 C56.67953125 39.47587891 57.59734375 39.73691406 58.54296875 40.00585938 C61.3257301 40.79953427 64.10663597 41.59933909 66.88671875 42.40234375 C67.80106689 42.6650708 68.71541504 42.92779785 69.6574707 43.19848633 C70.96784302 43.58170044 70.96784302 43.58170044 72.3046875 43.97265625 C73.08094482 44.19840332 73.85720215 44.42415039 74.65698242 44.65673828 C76.97905626 45.43322065 79.12354211 46.39502349 81.32421875 47.46484375 C86.3251219 49.80397587 91.45190628 50.63029562 96.88671875 51.40234375 C97.21671875 53.05234375 97.54671875 54.70234375 97.88671875 56.40234375 C96.23671875 57.06234375 94.58671875 57.72234375 92.88671875 58.40234375 C92.88671875 62.03234375 92.88671875 65.66234375 92.88671875 69.40234375 C89.82421875 70.33984375 89.82421875 70.33984375 85.88671875 70.40234375 C84.390625 69.15625 84.390625 69.15625 82.88671875 67.40234375 C77.85975297 61.66217001 70.74137371 59.36461767 63.88671875 56.40234375 C63.19835937 56.02980469 62.51 55.65726562 61.80078125 55.2734375 C59.22879586 54.1029217 56.73572969 53.72009328 53.94921875 53.27734375 C52.92957031 53.10976562 51.90992188 52.9421875 50.859375 52.76953125 C48.12412244 52.43166825 45.63270628 52.1604692 42.88671875 52.40234375 C41.77296875 53.54703125 41.77296875 53.54703125 40.63671875 54.71484375 C34.03902269 61.16259217 24.95716496 60.90081416 16.18768311 61.25518799 C3.25213343 61.78911673 -9.40038392 63.02929594 -22.19433594 65.08178711 C-44.14626894 68.47941635 -66.10638011 65.07777038 -86.125 55.57421875 C-89.16546928 54.38187785 -90.90235842 53.89949124 -94.11328125 54.40234375 C-113.47336717 65.63515811 -125.88381427 88.70100733 -132.11328125 109.40234375 C-141.54056292 146.31905048 -135.91180958 184.80361872 -116.73828125 217.52734375 C-115.11328125 220.40234375 -115.11328125 220.40234375 -115.11328125 222.40234375 C-114.12328125 222.73234375 -113.13328125 223.06234375 -112.11328125 223.40234375 C-110.54296875 225.14453125 -110.54296875 225.14453125 -108.98828125 227.27734375 C-108.21097656 228.32535156 -108.21097656 228.32535156 -107.41796875 229.39453125 C-106.11328125 231.40234375 -106.11328125 231.40234375 -105.11328125 234.40234375 C-104.12328125 234.73234375 -103.13328125 235.06234375 -102.11328125 235.40234375 C-99.61843808 237.76587938 -97.27955627 240.21650697 -94.98828125 242.77734375 C-87.70434959 249.42789005 -79.47891376 253.53395203 -70.11328125 256.40234375 C-69.22898437 256.68980469 -68.3446875 256.97726562 -67.43359375 257.2734375 C-49.46093797 262.71732889 -31.25188809 259.44976078 -14.58984375 251.14453125 C-11.55798619 249.50595451 -8.71022605 247.86566054 -5.984375 245.75 C-4.11328125 244.40234375 -4.11328125 244.40234375 -2.11328125 244.40234375 C-2.11328125 243.74234375 -2.11328125 243.08234375 -2.11328125 242.40234375 C0.52564051 240.61928851 2.85850738 239.41174754 5.88671875 238.40234375 C5.88671875 237.74234375 5.88671875 237.08234375 5.88671875 236.40234375 C7.36151553 235.13823223 8.89389145 233.94094182 10.44921875 232.77734375 C14.48266438 229.62763059 17.86065324 226.43806591 21.125 222.51171875 C23.05873773 220.19637867 25.09051408 217.99376367 27.13671875 215.77734375 C31.75194817 210.66762546 35.96733743 205.29363792 40.1875 199.859375 C43.31125716 195.84057758 46.53879956 191.9102953 49.7734375 187.98046875 C51.83134294 185.4699002 53.86322235 182.94069426 55.88671875 180.40234375 C60.17264646 175.0299633 64.52109029 169.71007315 68.88671875 164.40234375 C69.35980469 163.82613281 69.83289063 163.24992188 70.3203125 162.65625 C71.49918118 161.23001215 72.69289262 159.81608522 73.88671875 158.40234375 C74.45261719 157.69722656 75.01851563 156.99210938 75.6015625 156.265625 C76.51615234 155.15767578 76.51615234 155.15767578 77.44921875 154.02734375 C78.00738281 153.33898437 78.56554687 152.650625 79.140625 151.94140625 C80.88671875 150.40234375 80.88671875 150.40234375 84.88671875 150.40234375 C86.64745351 152.62835039 88.10364334 154.74499816 89.57421875 157.15234375 C90.45679246 158.53697249 91.34225601 159.91976307 92.23046875 161.30078125 C92.67390625 161.99397461 93.11734375 162.68716797 93.57421875 163.40136719 C97.36017832 169.17326536 101.60588187 174.68272519 106.0390625 179.96875 C106.69003906 180.75121094 107.34101563 181.53367188 108.01171875 182.33984375 C108.59179688 183.00886719 109.171875 183.67789063 109.76953125 184.3671875 C110.88671875 186.40234375 110.88671875 186.40234375 110.84765625 188.80078125 C109.59971247 192.17936076 107.73441504 194.36696182 105.38671875 197.08984375 C102.31839331 200.53382672 102.31839331 200.53382672 99.88671875 204.40234375 C99.22671875 204.40234375 98.56671875 204.40234375 97.88671875 204.40234375 C97.57734375 205.02109375 97.26796875 205.63984375 96.94921875 206.27734375 C96.26171875 207.65234375 95.57421875 209.02734375 94.88671875 210.40234375 C94.22671875 210.40234375 93.56671875 210.40234375 92.88671875 210.40234375 C92.63664062 211.12421875 92.3865625 211.84609375 92.12890625 212.58984375 C90.77533216 215.65453979 89.14511838 217.82616306 87.01171875 220.40234375 C86.33367187 221.22734375 85.655625 222.05234375 84.95703125 222.90234375 C84.27382813 223.72734375 83.590625 224.55234375 82.88671875 225.40234375 C82.18289063 226.33046875 81.4790625 227.25859375 80.75390625 228.21484375 C80.13773437 228.93671875 79.5215625 229.65859375 78.88671875 230.40234375 C78.22671875 230.40234375 77.56671875 230.40234375 76.88671875 230.40234375 C76.65082031 231.12035156 76.41492188 231.83835937 76.171875 232.578125 C74.67458546 235.86852117 72.79891349 237.96420455 70.32421875 240.58984375 C67.24486077 243.74423312 67.24486077 243.74423312 64.88671875 247.40234375 C64.22671875 247.40234375 63.56671875 247.40234375 62.88671875 247.40234375 C62.63535156 247.98242188 62.38398438 248.5625 62.125 249.16015625 C60.73227225 251.68200397 59.15735423 253.29378454 57.07421875 255.27734375 C54.63386904 257.64721405 52.31940016 259.99198873 50.19921875 262.65234375 C47.94575657 265.33213661 45.65200894 267.27519745 42.88671875 269.40234375 C42.28859375 270.00046875 41.69046875 270.59859375 41.07421875 271.21484375 C36.08574927 276.20331323 30.85499374 280.62649631 24.88671875 284.40234375 C23.51142727 285.3394161 22.13645761 286.27696086 20.76171875 287.21484375 C19.14132587 288.2843568 17.51602188 289.34645428 15.88671875 290.40234375 C15.02433594 290.96179688 14.16195312 291.52125 13.2734375 292.09765625 C-8.89568036 305.77321166 -33.85629689 310.62529801 -59.61328125 308.71484375 C-60.67434082 308.6372583 -61.73540039 308.55967285 -62.82861328 308.47973633 C-74.58588875 307.44017077 -85.03781763 304.32596175 -95.86328125 299.71484375 C-96.8584375 299.29912109 -97.85359375 298.88339844 -98.87890625 298.45507812 C-101.29366617 297.44505835 -103.70490848 296.42747733 -106.11328125 295.40234375 C-106.11328125 294.74234375 -106.11328125 294.08234375 -106.11328125 293.40234375 C-106.82742187 293.139375 -107.5415625 292.87640625 -108.27734375 292.60546875 C-118.40771478 288.30773558 -126.43973389 281.07589111 -134.11328125 273.40234375 C-135.29664063 272.48582031 -135.29664063 272.48582031 -136.50390625 271.55078125 C-159.72508859 252.43154429 -173.1541359 218.74630186 -180.51904297 190.59472656 C-181.0237492 188.73266332 -181.6072404 186.89224007 -182.20703125 185.05859375 C-183.51093381 179.79802135 -183.85680935 174.54907219 -184.23828125 169.15234375 C-184.32174805 167.99355713 -184.40521484 166.83477051 -184.49121094 165.64086914 C-185.1535553 155.86453122 -185.48703751 146.19399875 -185.11328125 136.40234375 C-185.08282715 135.46632324 -185.05237305 134.53030273 -185.02099609 133.56591797 C-184.42986422 118.05310841 -181.59446875 104.08730558 -176.9699707 89.29394531 C-176.08759114 86.3156314 -175.34765203 83.32636328 -174.62890625 80.3046875 C-173.27278774 74.7637177 -171.45919268 69.55247413 -169.30078125 64.27734375 C-168.95039795 63.41133545 -168.60001465 62.54532715 -168.23901367 61.65307617 C-166.03430304 56.3204606 -163.62602981 51.31977001 -160.46484375 46.4765625 C-159.09993361 44.38185936 -157.95434942 42.24423497 -156.80078125 40.02734375 C-143.40192931 15.75530206 -118.87487363 -5.3862952 -92.328125 -13.796875 C-88.60495407 -14.81572849 -84.87523567 -15.73398459 -81.11328125 -16.59765625 C-79.76363281 -16.93796875 -79.76363281 -16.93796875 -78.38671875 -17.28515625 C-52.95990449 -22.95305293 -20.77712783 -15.70766226 0 0 Z M-51.11328125 14.40234375 C-49.98994344 19.17652946 -47.25999328 21.51344109 -43.39453125 24.23046875 C-39.59272898 26.18344937 -36.25982481 26.17982067 -32.11328125 25.40234375 C-29.60879501 24.58746495 -27.47136803 23.60647317 -25.11328125 22.40234375 C-27.90003017 20.54451114 -29.76559465 19.78983149 -32.9296875 18.89453125 C-33.85845703 18.63027344 -34.78722656 18.36601563 -35.74414062 18.09375 C-36.71158203 17.82433594 -37.67902344 17.55492187 -38.67578125 17.27734375 C-39.64708984 17.00019531 -40.61839844 16.72304688 -41.61914062 16.4375 C-46.29673493 14.97485838 -46.29673493 14.97485838 -51.11328125 14.40234375 Z M90.88671875 63.40234375 C91.88671875 65.40234375 91.88671875 65.40234375 91.88671875 65.40234375 Z " fill="#76BF4B" transform="translate(267.11328125,31.59765625)"/>
<path d="M0 0 C0.8971875 0.28617187 1.794375 0.57234375 2.71875 0.8671875 C15.78604122 5.44073943 27.30674506 14.33921828 37 24 C37.8765625 24.8559375 38.753125 25.711875 39.65625 26.59375 C46 33.10666667 46 33.10666667 46 37 C46.66 37 47.32 37 48 37 C63.53694445 57.01043 69.06526959 86.49456202 66.10180664 111.07885742 C63.32853969 130.84234471 56.93448681 150.52017241 44 166 C43.37867188 166.74765625 42.75734375 167.4953125 42.1171875 168.265625 C31.17932403 181.05014074 19.45245542 190.47019434 4 197 C3.30664551 197.29422852 2.61329102 197.58845703 1.89892578 197.89160156 C-28.49979485 210.34882734 -63.44332909 205.38353246 -93.296875 193.7109375 C-95.90588845 192.5421598 -98.45361365 191.29901457 -101 190 C-101.98097656 189.52691406 -102.96195312 189.05382812 -103.97265625 188.56640625 C-113.84200489 183.76274098 -122.83956084 178.2773908 -131.65234375 171.734375 C-133.40105856 170.4424792 -135.19098446 169.20601036 -137 168 C-137 167.34 -137 166.68 -137 166 C-137.66 166 -138.32 166 -139 166 C-139 165.34 -139 164.68 -139 164 C-139.721875 163.79375 -140.44375 163.5875 -141.1875 163.375 C-144.19269725 161.90579246 -145.60361807 160.24797537 -147.625 157.6328125 C-149.08201633 155.90260561 -150.62468305 154.55494644 -152.375 153.125 C-156.3843754 149.77954268 -159.65223633 145.9944142 -163 142 C-163.77472656 141.10152344 -164.54945313 140.20304688 -165.34765625 139.27734375 C-170.60719601 133.1073427 -175.38476248 126.78482286 -179.921875 120.06640625 C-181.70584724 117.43404119 -183.55620771 114.87510141 -185.4375 112.3125 C-190.60220711 104.93605489 -194.77139649 96.9360823 -199 89 C-199.36270996 88.32130859 -199.72541992 87.64261719 -200.09912109 86.94335938 C-221.44373636 46.64472575 -221.44373636 46.64472575 -218 30 C-214.5317798 27.6878532 -212.57243038 27.15173566 -208.46484375 27.23828125 C-203.03962284 28.91485506 -200.14973243 34.57227919 -197 39 C-195.71933986 40.61296716 -194.42802954 42.21754938 -193.125 43.8125 C-189.36749012 48.51879995 -185.64971637 53.25614506 -181.94384766 58.00317383 C-179.73886954 60.82028624 -177.5031552 63.58631739 -175.16796875 66.296875 C-173 69 -173 69 -173 71 C-172.34 71 -171.68 71 -171 71 C-169.66015625 72.328125 -169.66015625 72.328125 -168.0625 74.25 C-150.0731874 95.71941644 -150.0731874 95.71941644 -128.5 113.3125 C-127.675 113.869375 -126.85 114.42625 -126 115 C-126 115.66 -126 116.32 -126 117 C-125.41283203 117.27779297 -124.82566406 117.55558594 -124.22070312 117.84179688 C-122.12871326 118.93286986 -120.35120513 120.11576048 -118.46875 121.53125 C-117.82292969 122.01207031 -117.17710937 122.49289063 -116.51171875 122.98828125 C-115.17057292 123.99609375 -113.82942708 125.00390625 -112.48828125 126.01171875 C-111.84246094 126.49253906 -111.19664062 126.97335938 -110.53125 127.46875 C-109.94923828 127.90638672 -109.36722656 128.34402344 -108.76757812 128.79492188 C-106.91460749 130.05821788 -105.0251896 131.04186969 -103 132 C-103 132.66 -103 133.32 -103 134 C-102.01773438 134.34804688 -102.01773438 134.34804688 -101.015625 134.703125 C-97.85067861 136.06421593 -94.99256831 137.69230594 -92.02270508 139.42773438 C-82.66281198 144.87334411 -73.33837931 148.82884945 -63 152 C-61.27330078 152.54140625 -61.27330078 152.54140625 -59.51171875 153.09375 C-42.43467646 157.50072866 -22.86189284 156.62505802 -7.53125 147.66015625 C-3.63254747 145.10313684 -0.26673376 142.3224563 3 139 C3.59425781 138.43667969 4.18851563 137.87335938 4.80078125 137.29296875 C13.43660392 127.89121946 17.84319773 111.42841502 18.1328125 98.89453125 C17.43339443 83.65133161 12.10491627 69.51596313 2 58 C1.34 57.67 0.68 57.34 0 57 C0 56.34 0 55.68 0 55 C-0.56847656 54.73058594 -1.13695312 54.46117187 -1.72265625 54.18359375 C-4.08540808 52.95561124 -6.21868435 51.53297985 -8.4375 50.0625 C-21.85977465 41.98939657 -37.84625694 42.77959271 -52.60107422 46.30566406 C-63.95068006 49.59065073 -74.34425125 55.3129861 -84 62 C-84.969375 62.61875 -85.93875 63.2375 -86.9375 63.875 C-91.47530445 67.02368064 -95.71891461 70.51353334 -100 74 C-100.92683594 74.75023437 -101.85367188 75.50046875 -102.80859375 76.2734375 C-113.61352687 84.91959426 -113.61352687 84.91959426 -123 95 C-125.27061952 97.07769107 -127.61735078 99.05238505 -130 101 C-134.05371548 98.78896545 -137.05641992 96.18890958 -140.30859375 92.921875 C-140.797798 92.43221252 -141.28700226 91.94255005 -141.79103088 91.43804932 C-142.82115706 90.40491543 -143.8488653 89.36936557 -144.87426758 88.33154297 C-146.42419234 86.76346354 -147.9818668 85.2034338 -149.54101562 83.64453125 C-154.56986878 78.59724189 -159.46707087 73.50482645 -164 68 C-161.17367494 61.95268286 -156.05327875 58.11006087 -151.0625 53.84375 C-148.61172618 51.65290674 -146.31900644 49.32959551 -144 47 C-136.72134259 40.05480399 -129.14251229 33.90731284 -121 28 C-119.53626953 26.91138672 -119.53626953 26.91138672 -118.04296875 25.80078125 C-113.16032386 22.18722327 -108.34995 18.87312129 -103 16 C-102.36191406 15.63648437 -101.72382813 15.27296875 -101.06640625 14.8984375 C-98.72690939 13.56771451 -96.36796898 12.27941011 -94 11 C-92.99195313 10.45085937 -91.98390625 9.90171875 -90.9453125 9.3359375 C-62.48977648 -5.58186083 -30.64738249 -10.75233797 0 0 Z " fill="#729431" transform="translate(549,73)"/>
<path d="M0 0 C2.3776221 1.76721808 4.73905899 2.67240966 7.51171875 3.71484375 C8.65253906 4.14539063 9.79335938 4.5759375 10.96875 5.01953125 C13.77892198 6.03494103 16.60861599 6.957832 19.4609375 7.84765625 C37.33724366 13.4467964 37.33724366 13.4467964 42.50390625 20.66015625 C44.12713987 23.87911105 44.60580413 26.64768629 45.07421875 30.21484375 C45.23277344 31.37628906 45.39132812 32.53773437 45.5546875 33.734375 C45.66425781 34.61480469 45.77382813 35.49523437 45.88671875 36.40234375 C46.47050293 36.56839111 47.05428711 36.73443848 47.65576172 36.90551758 C50.35795587 37.67456257 53.05983799 38.44469849 55.76171875 39.21484375 C56.67953125 39.47587891 57.59734375 39.73691406 58.54296875 40.00585938 C61.3257301 40.79953427 64.10663597 41.59933909 66.88671875 42.40234375 C67.80106689 42.6650708 68.71541504 42.92779785 69.6574707 43.19848633 C70.53105225 43.4539624 71.40463379 43.70943848 72.3046875 43.97265625 C73.08094482 44.19840332 73.85720215 44.42415039 74.65698242 44.65673828 C76.97905626 45.43322065 79.12354211 46.39502349 81.32421875 47.46484375 C86.3251219 49.80397587 91.45190628 50.63029562 96.88671875 51.40234375 C97.21671875 53.05234375 97.54671875 54.70234375 97.88671875 56.40234375 C96.23671875 57.06234375 94.58671875 57.72234375 92.88671875 58.40234375 C92.88671875 62.03234375 92.88671875 65.66234375 92.88671875 69.40234375 C89.82421875 70.33984375 89.82421875 70.33984375 85.88671875 70.40234375 C84.390625 69.15625 84.390625 69.15625 82.88671875 67.40234375 C77.85975297 61.66217001 70.74137371 59.36461767 63.88671875 56.40234375 C63.19835937 56.02980469 62.51 55.65726562 61.80078125 55.2734375 C59.22879586 54.1029217 56.73572969 53.72009328 53.94921875 53.27734375 C52.92957031 53.10976562 51.90992188 52.9421875 50.859375 52.76953125 C48.12412244 52.43166825 45.63270628 52.1604692 42.88671875 52.40234375 C41.77296875 53.54703125 41.77296875 53.54703125 40.63671875 54.71484375 C34.03902269 61.16259217 24.95716496 60.90081416 16.18768311 61.25518799 C3.25213343 61.78911673 -9.40038392 63.02929594 -22.19433594 65.08178711 C-44.14626894 68.47941635 -66.10638011 65.07777038 -86.125 55.57421875 C-89.16546928 54.38187785 -90.90235842 53.89949124 -94.11328125 54.40234375 C-110.13897055 63.70052526 -121.36716326 81.6837035 -128.11328125 98.40234375 C-128.44328125 98.40234375 -128.77328125 98.40234375 -129.11328125 98.40234375 C-129.76567406 95.37937509 -130.24800105 92.50089909 -130.11328125 89.40234375 C-127.86328125 87.21484375 -127.86328125 87.21484375 -125.11328125 85.40234375 C-122.46257301 81.14227693 -121.61007167 77.37024793 -121.11328125 72.40234375 C-119.13328125 72.40234375 -117.15328125 72.40234375 -115.11328125 72.40234375 C-115.11328125 71.08234375 -115.11328125 69.76234375 -115.11328125 68.40234375 C-113.01272361 66.30178611 -111.00429067 64.31571021 -108.67578125 62.46484375 C-106.19801219 60.57408779 -106.19801219 60.57408779 -104.61328125 58.77734375 C-102.65521881 56.98245318 -100.59843806 56.27550695 -98.11328125 55.40234375 C-98.11328125 54.41234375 -98.11328125 53.42234375 -98.11328125 52.40234375 C-97.45328125 52.40234375 -96.79328125 52.40234375 -96.11328125 52.40234375 C-96.11328125 51.74234375 -96.11328125 51.08234375 -96.11328125 50.40234375 C-92.81328125 50.40234375 -89.51328125 50.40234375 -86.11328125 50.40234375 C-86.11328125 51.39234375 -86.11328125 52.38234375 -86.11328125 53.40234375 C-83.14328125 53.73234375 -80.17328125 54.06234375 -77.11328125 54.40234375 C-77.11328125 55.06234375 -77.11328125 55.72234375 -77.11328125 56.40234375 C-76.20578125 56.54671875 -75.29828125 56.69109375 -74.36328125 56.83984375 C-71.11328125 57.40234375 -71.11328125 57.40234375 -68.92578125 57.96484375 C-66.93799919 58.51966402 -66.93799919 58.51966402 -64.11328125 58.40234375 C-63.78328125 59.39234375 -63.45328125 60.38234375 -63.11328125 61.40234375 C-62.12328125 61.07234375 -61.13328125 60.74234375 -60.11328125 60.40234375 C-58.43573645 61.04114392 -56.76996487 61.71124201 -55.11328125 62.40234375 C-51.46512363 62.98825997 -47.80068036 63.19207482 -44.11328125 63.40234375 C-43.40300781 63.44488281 -42.69273437 63.48742187 -41.9609375 63.53125 C-33.66217773 63.77017782 -23.98940205 63.02771735 -16.11328125 60.40234375 C-14.71888461 60.33568999 -13.3215825 60.31696176 -11.92578125 60.33984375 C-10.66765625 60.36046875 -9.40953125 60.38109375 -8.11328125 60.40234375 C-7.78328125 59.74234375 -7.45328125 59.08234375 -7.11328125 58.40234375 C-6.12328125 59.06234375 -5.13328125 59.72234375 -4.11328125 60.40234375 C-3.78328125 59.74234375 -3.45328125 59.08234375 -3.11328125 58.40234375 C-2.53360596 58.41281738 -1.95393066 58.42329102 -1.35668945 58.43408203 C1.28690196 58.4758299 3.9304238 58.50172913 6.57421875 58.52734375 C7.48623047 58.54410156 8.39824219 58.56085938 9.33789062 58.578125 C14.03864825 58.61231233 17.5789733 58.482789 21.88671875 56.40234375 C24.21963686 56.35832643 26.5537205 56.36280141 28.88671875 56.40234375 C31.56829503 56.14359516 34.21776855 55.77693325 36.88671875 55.40234375 C36.84546875 54.30921875 36.80421875 53.21609375 36.76171875 52.08984375 C36.88671875 48.40234375 36.88671875 48.40234375 38.88671875 45.40234375 C39.54671875 45.40234375 40.20671875 45.40234375 40.88671875 45.40234375 C40.84546875 44.10296875 40.80421875 42.80359375 40.76171875 41.46484375 C40.74616823 36.56643073 41.63744695 32.12057564 42.88671875 27.40234375 C41.23671875 26.74234375 39.58671875 26.08234375 37.88671875 25.40234375 C38.21671875 23.42234375 38.54671875 21.44234375 38.88671875 19.40234375 C38.22671875 19.40234375 37.56671875 19.40234375 36.88671875 19.40234375 C36.88671875 18.74234375 36.88671875 18.08234375 36.88671875 17.40234375 C36.34789062 17.28890625 35.8090625 17.17546875 35.25390625 17.05859375 C31.32725528 15.97001724 27.68104067 14.19677692 23.95703125 12.55859375 C20.91329963 11.41235385 18.10359953 10.82485943 14.88671875 10.40234375 C14.88671875 9.74234375 14.88671875 9.08234375 14.88671875 8.40234375 C14.18546875 8.46421875 13.48421875 8.52609375 12.76171875 8.58984375 C9.19599971 8.35729686 7.01249744 7.09547387 3.88671875 5.40234375 C3.10167969 5.11101563 2.31664062 4.8196875 1.5078125 4.51953125 C-1.3594754 3.29740854 -3.55530772 1.76310759 -6.05078125 -0.09765625 C-9.67841447 -2.69728065 -12.74883277 -4.48116943 -17.11328125 -5.59765625 C-19.48153095 -6.49984661 -21.75220037 -7.40507978 -23.98828125 -8.59765625 C-26.92081284 -9.97767112 -29.99577335 -10.74895053 -33.11328125 -11.59765625 C-34.0868457 -11.86304199 -34.0868457 -11.86304199 -35.08007812 -12.13378906 C-48.49215149 -15.67794565 -69.09597625 -20.00471559 -81.93359375 -12.5390625 C-82.44664062 -12.16652344 -82.9596875 -11.79398438 -83.48828125 -11.41015625 C-86.11328125 -9.59765625 -86.11328125 -9.59765625 -88.73828125 -9.97265625 C-89.52203125 -10.17890625 -90.30578125 -10.38515625 -91.11328125 -10.59765625 C-92.4681198 -9.97585666 -93.79914175 -9.30140308 -95.11328125 -8.59765625 C-96.67236683 -8.00525758 -98.23513214 -7.42248394 -99.80078125 -6.84765625 C-105.10465342 -4.74788281 -109.47910552 -1.88222993 -114.11328125 1.40234375 C-115.67258599 2.44878746 -117.23506626 3.49051576 -118.80078125 4.52734375 C-119.54070312 5.02363281 -120.280625 5.51992188 -121.04296875 6.03125 C-122.81735968 7.2063655 -124.61913405 8.33995021 -126.42578125 9.46484375 C-129.24827697 11.49966625 -130.97004952 13.68758356 -133.11328125 16.40234375 C-133.77328125 16.69109375 -134.43328125 16.97984375 -135.11328125 17.27734375 C-137.72883886 18.7485949 -138.54268572 20.7323651 -139.90234375 23.33203125 C-141.80350454 26.58240293 -144.22540234 29.39618566 -146.625 32.2890625 C-148.21918282 34.28133026 -148.21918282 34.28133026 -148.63671875 36.51953125 C-149.11328125 38.40234375 -149.11328125 38.40234375 -152.05078125 40.83984375 C-155.21738825 43.48945369 -155.93260054 44.58783683 -157.11328125 48.40234375 C-159.75043655 54.93790253 -159.75043655 54.93790253 -161.67578125 57.40234375 C-163.27926592 59.63327894 -163.78014613 61.701919 -164.4453125 64.33984375 C-165.54932439 67.74872257 -167.29771166 70.82505424 -168.9921875 73.97265625 C-170.14803911 76.47767264 -170.65772986 78.69093694 -171.11328125 81.40234375 C-172.14262002 85.31383108 -173.21892914 88.83650448 -175.11328125 92.40234375 C-176.13846447 94.72541902 -177.12384968 97.06368732 -178.11328125 99.40234375 C-179.64980115 94.79278405 -177.95370958 91.05007558 -176.67578125 86.46484375 C-176.40572266 85.4893457 -176.13566406 84.51384766 -175.85742188 83.50878906 C-172.19626693 70.71127569 -167.78191166 57.6869366 -160.46484375 46.4765625 C-159.09993361 44.38185936 -157.95434942 42.24423497 -156.80078125 40.02734375 C-143.40192931 15.75530206 -118.87487363 -5.3862952 -92.328125 -13.796875 C-88.60495407 -14.81572849 -84.87523567 -15.73398459 -81.11328125 -16.59765625 C-79.76363281 -16.93796875 -79.76363281 -16.93796875 -78.38671875 -17.28515625 C-52.95990449 -22.95305293 -20.77712783 -15.70766226 0 0 Z M90.88671875 63.40234375 C91.88671875 65.40234375 91.88671875 65.40234375 91.88671875 65.40234375 Z " fill="#BEE488" transform="translate(267.11328125,31.59765625)"/>
<path d="M0 0 C7.49546205 0.01850731 14.4791738 2.07343665 21.5625 4.3125 C22.53896484 4.60833984 23.51542969 4.90417969 24.52148438 5.20898438 C29.87898816 6.86819792 34.9268027 8.80843756 40.01489258 11.15893555 C42.65217521 12.27631824 45.23727034 12.82085119 48.0625 13.25 C49.00222656 13.39953125 49.94195312 13.5490625 50.91015625 13.703125 C51.59980469 13.80109375 52.28945313 13.8990625 53 14 C53.495 16.475 53.495 16.475 54 19 C52.35 19.66 50.7 20.32 49 21 C49 24.63 49 28.26 49 32 C45.9375 32.9375 45.9375 32.9375 42 33 C40.50390625 31.75390625 40.50390625 31.75390625 39 30 C33.97303422 24.25982626 26.85465496 21.96227392 20 19 C19.31164062 18.62488281 18.62328125 18.24976562 17.9140625 17.86328125 C15.33874795 16.70176183 12.85465296 16.39435199 10.0625 16 C6.07633915 15.43558784 2.68828161 14.63017972 -1 13 C-1.02686553 11.02090602 -1.04633375 9.04171029 -1.0625 7.0625 C-1.07410156 5.96035156 -1.08570313 4.85820313 -1.09765625 3.72265625 C-1 1 -1 1 0 0 Z M47 26 C48 28 48 28 48 28 Z " fill="#D23548" transform="translate(311,69)"/>
<path d="M0 0 C6.17172805 0.62976817 11.36199373 1.93237346 16.3125 5.8125 C20.62298863 11.40017045 20.54117572 18.21423039 21 25 C20.34 25.33 19.68 25.66 19 26 C18.53101037 28.8159849 18.53101037 28.8159849 18.375 32.0625 C18.30023438 33.16722656 18.22546875 34.27195313 18.1484375 35.41015625 C18.07496094 36.69212891 18.07496094 36.69212891 18 38 C19.32 38.33 20.64 38.66 22 39 C21.443125 39.061875 20.88625 39.12375 20.3125 39.1875 C17.76903559 39.8779086 17.76903559 39.8779086 15.8125 42.375 C9.05669541 48.68041762 0.12318985 48.49633904 -8.69903564 48.85284424 C-21.63458532 49.38677298 -34.28710267 50.62695219 -47.08105469 52.67944336 C-69.03298769 56.0770726 -90.99309886 52.67542663 -111.01171875 43.171875 C-114.05218803 41.9795341 -115.78907717 41.49714749 -119 42 C-135.0256893 51.29818151 -146.25388201 69.28135975 -153 86 C-153.33 86 -153.66 86 -154 86 C-154.65239281 82.97703134 -155.1347198 80.09855534 -155 77 C-152.75 74.8125 -152.75 74.8125 -150 73 C-147.34929176 68.73993318 -146.49679042 64.96790418 -146 60 C-144.02 60 -142.04 60 -140 60 C-140 58.68 -140 57.36 -140 56 C-137.89944236 53.89944236 -135.89100942 51.91336646 -133.5625 50.0625 C-131.08473094 48.17174404 -131.08473094 48.17174404 -129.5 46.375 C-127.54193756 44.58010943 -125.48515681 43.8731632 -123 43 C-123 42.01 -123 41.02 -123 40 C-122.34 40 -121.68 40 -121 40 C-121 39.34 -121 38.68 -121 38 C-117.7 38 -114.4 38 -111 38 C-111 38.99 -111 39.98 -111 41 C-108.03 41.33 -105.06 41.66 -102 42 C-102 42.66 -102 43.32 -102 44 C-101.0925 44.144375 -100.185 44.28875 -99.25 44.4375 C-96 45 -96 45 -93.8125 45.5625 C-91.82471794 46.11732027 -91.82471794 46.11732027 -89 46 C-88.67 46.99 -88.34 47.98 -88 49 C-87.01 48.67 -86.02 48.34 -85 48 C-83.3224552 48.63880017 -81.65668362 49.30889826 -80 50 C-76.35184238 50.58591622 -72.68739911 50.78973107 -69 51 C-68.28972656 51.04253906 -67.57945312 51.08507812 -66.84765625 51.12890625 C-58.54889648 51.36783407 -48.8761208 50.6253736 -41 48 C-39.60560336 47.93334624 -38.20830125 47.91461801 -36.8125 47.9375 C-35.554375 47.958125 -34.29625 47.97875 -33 48 C-32.505 47.01 -32.505 47.01 -32 46 C-30.515 46.99 -30.515 46.99 -29 48 C-28.505 47.01 -28.505 47.01 -28 46 C-27.42032471 46.01047363 -26.84064941 46.02094727 -26.2434082 46.03173828 C-23.59981679 46.07348615 -20.95629495 46.09938538 -18.3125 46.125 C-16.94448242 46.15013672 -16.94448242 46.15013672 -15.54882812 46.17578125 C-10.8480705 46.20996858 -7.30774545 46.08044525 -3 44 C-0.66708189 43.95598268 1.66700175 43.96045766 4 44 C6.68157628 43.74125141 9.3310498 43.3745895 12 43 C11.95875 41.906875 11.9175 40.81375 11.875 39.6875 C12 36 12 36 14 33 C14.66 33 15.32 33 16 33 C15.95875 31.700625 15.9175 30.40125 15.875 29.0625 C15.85944948 24.16408698 16.7507282 19.71823189 18 15 C16.35 14.34 14.7 13.68 13 13 C13.33 11.02 13.66 9.04 14 7 C13.34 7 12.68 7 12 7 C12 6.34 12 5.68 12 5 C11.42765625 4.86722656 10.8553125 4.73445313 10.265625 4.59765625 C8.02349125 4.00619683 5.91420381 3.26711146 3.75 2.4375 C3.04359375 2.16808594 2.3371875 1.89867187 1.609375 1.62109375 C0.81273437 1.31365234 0.81273437 1.31365234 0 1 C0 0.67 0 0.34 0 0 Z " fill="#ADD57C" transform="translate(292,44)"/>
<path d="M0 0 C5.5279484 4.10876496 13.18815648 5.86340109 19.70703125 7.98828125 C20.52349121 8.25471436 21.33995117 8.52114746 22.18115234 8.7956543 C23.80398435 9.32051734 25.4293041 9.83775652 27.05712891 10.34692383 C29.01880577 10.97720452 30.95573771 11.683496 32.88671875 12.40234375 C33.38171875 13.39234375 33.38171875 13.39234375 33.88671875 14.40234375 C27.61671875 13.08234375 21.34671875 11.76234375 14.88671875 10.40234375 C14.88671875 9.74234375 14.88671875 9.08234375 14.88671875 8.40234375 C14.18546875 8.46421875 13.48421875 8.52609375 12.76171875 8.58984375 C9.19599971 8.35729686 7.01249744 7.09547387 3.88671875 5.40234375 C3.10167969 5.11101563 2.31664062 4.8196875 1.5078125 4.51953125 C-1.3594754 3.29740854 -3.55530772 1.76310759 -6.05078125 -0.09765625 C-9.67841447 -2.69728065 -12.74883277 -4.48116943 -17.11328125 -5.59765625 C-19.48153095 -6.49984661 -21.75220037 -7.40507978 -23.98828125 -8.59765625 C-26.92081284 -9.97767112 -29.99577335 -10.74895053 -33.11328125 -11.59765625 C-33.76232422 -11.77458008 -34.41136719 -11.95150391 -35.08007812 -12.13378906 C-51.11974251 -16.37228975 -65.62729912 -16.6399139 -81.92163086 -13.57788086 C-85.67343113 -12.88334135 -88.4598024 -12.48433606 -92.11328125 -13.59765625 C-89.5723427 -14.24647073 -87.03059852 -14.89178524 -84.48828125 -15.53515625 C-83.77542969 -15.71755859 -83.06257812 -15.89996094 -82.328125 -16.08789062 C-55.3692576 -22.88943974 -22.43675642 -16.96235375 0 0 Z " fill="#BCE586" transform="translate(267.11328125,31.59765625)"/>
<path d="M0 0 C0.33 0.66 0.66 1.32 1 2 C2.051875 1.95875 3.10375 1.9175 4.1875 1.875 C7.74010173 1.99147875 9.84866641 2.47208068 13 4 C13 4.66 13 5.32 13 6 C13.66 6.33 14.32 6.66 15 7 C15.625 9.0625 15.625 9.0625 16 11 C16.99 11 17.98 11 19 11 C19 10.34 19 9.68 19 9 C21.31 9 23.62 9 26 9 C26.09410156 9.62519531 26.18820313 10.25039063 26.28515625 10.89453125 C26.52105469 11.58933594 26.75695312 12.28414063 27 13 C32.88233114 15.88768983 38.50681668 16.6141346 45 17 C45 17.66 45 18.32 45 19 C48.96 18.67 52.92 18.34 57 18 C57 17.34 57 16.68 57 16 C64.75493514 15.90071918 72.31068715 15.93940512 80 17 C80 17.66 80 18.32 80 19 C69.06325015 20.71298492 58.61518207 21.15829539 47.5625 20.3125 C45.96656006 20.19575928 45.96656006 20.19575928 44.33837891 20.07666016 C33.69531475 19.14363746 23.7363262 16.65023724 13.875 12.5625 C13.13507813 12.27568359 12.39515625 11.98886719 11.6328125 11.69335938 C6.32391923 9.51845693 6.32391923 9.51845693 4.640625 6.82421875 C4.42921875 6.22222656 4.2178125 5.62023437 4 5 C1.94999129 4.19471111 1.94999129 4.19471111 0 4 C0 2.68 0 1.36 0 0 Z " fill="#5C9F55" transform="translate(160,320)"/>
<path d="M0 0 C1.11375 0.309375 2.2275 0.61875 3.375 0.9375 C7.53720296 2.00034826 11.61806297 2.39121133 15.8984375 2.65625 C18 3 18 3 20 5 C22.06874034 5.6425235 22.06874034 5.6425235 24 6 C24 6.66 24 7.32 24 8 C24.66 8 25.32 8 26 8 C26 8.99 26 9.98 26 11 C26.66 11.66 27.32 12.32 28 13 C27.67 13.99 27.34 14.98 27 16 C23.7 16 20.4 16 17 16 C16.67 15.01 16.34 14.02 16 13 C10.72 12.01 5.44 11.02 0 10 C0 6.7 0 3.4 0 0 Z " fill="#D63D47" transform="translate(311,71)"/>
<path d="M0 0 C0 0.66 0 1.32 0 2 C-0.66 2 -1.32 2 -2 2 C-2.65156409 6.72383963 -3.11950637 11.21974517 -3 16 C-9.4295082 17.33442623 -9.4295082 17.33442623 -11.8125 15.9375 C-13 14 -13 14 -13.75 11 C-15.138907 7.6666232 -15.48631788 7.44854065 -18.625 6.125 C-19.73875 5.75375 -20.8525 5.3825 -22 5 C-22 4.34 -22 3.68 -22 3 C-20.68 2.67 -19.36 2.34 -18 2 C-18.66 1.34 -19.32 0.68 -20 0 C-14.45830128 -2.77084936 -5.97174515 -0.68528223 0 0 Z M-5 10 C-4 12 -4 12 -4 12 Z " fill="#C11F34" transform="translate(363,85)"/>
<path d="M0 0 C0 0.99 0 1.98 0 3 C-1.50367677 4.24216777 -3.01021295 5.48139708 -4.54296875 6.6875 C-6.60341968 8.54356304 -7.18668969 10.37238208 -8 13 C-10.6371553 19.53555878 -10.6371553 19.53555878 -12.5625 22 C-14.16598467 24.23093519 -14.66686488 26.29957525 -15.33203125 28.9375 C-16.43604314 32.34637882 -18.18443041 35.42271049 -19.87890625 38.5703125 C-21.03475786 41.07532889 -21.54444861 43.28859319 -22 46 C-23.02933877 49.91148733 -24.10564789 53.43416073 -26 57 C-27.02518322 59.32307527 -28.01056843 61.66134357 -29 64 C-30.5365199 59.3904403 -28.84042833 55.64773183 -27.5625 51.0625 C-27.29244141 50.08700195 -27.02238281 49.11150391 -26.74414062 48.10644531 C-23.06399927 35.2425652 -18.62621392 22.11916305 -11.2265625 10.875 C-9.9424187 9.02608641 -9.9424187 9.02608641 -9.09375 6.921875 C-7.71816146 4.50476942 -6.26422343 3.63729102 -3.875 2.25 C-3.15054688 1.82203125 -2.42609375 1.3940625 -1.6796875 0.953125 C-1.12539062 0.63859375 -0.57109375 0.3240625 0 0 Z " fill="#9DD663" transform="translate(118,67)"/>
<path d="M0 0 C1.32 0.66 2.64 1.32 4 2 C4.33 1.34 4.66 0.68 5 0 C16.88 0 28.76 0 41 0 C36.96283896 2.01858052 35.02937043 2.30666151 30.62890625 2.4921875 C28.70473877 2.58717529 28.70473877 2.58717529 26.74169922 2.68408203 C26.06073181 2.71487854 25.3797644 2.74567505 24.67816162 2.77740479 C11.62192529 3.37968739 -1.16273954 4.60713333 -14.07983398 6.67919922 C-24.50556525 8.29302333 -34.9434616 8.85449572 -45.375 7 C-46.45523438 6.814375 -47.53546875 6.62875 -48.6484375 6.4375 C-49.42445313 6.293125 -50.20046875 6.14875 -51 6 C-51 5.67 -51 5.34 -51 5 C-50.35675781 5.01047363 -49.71351563 5.02094727 -49.05078125 5.03173828 C-28.28086037 5.76576056 -28.28086037 5.76576056 -8 2 C-6.60560336 1.93334624 -5.20830125 1.91461801 -3.8125 1.9375 C-1.9253125 1.9684375 -1.9253125 1.9684375 0 2 C0 1.34 0 0.68 0 0 Z " fill="#A2D674" transform="translate(259,90)"/>
<path d="M0 0 C1.258125 -0.04125 2.51625 -0.0825 3.8125 -0.125 C4.52019531 -0.14820313 5.22789062 -0.17140625 5.95703125 -0.1953125 C8 0 8 0 11 2 C13.33157492 2.34541851 15.66508361 2.67794257 18 3 C19.66666667 3.66666667 21.33333333 4.33333333 23 5 C25.32597511 5.3813074 27.65912158 5.72460254 30 6 C30.79953138 9.28696233 31.09658936 10.71023192 30 14 C24.08738416 16.63980115 17.19196586 16.42647678 11 15 C5.56630279 12.43693528 2.49223484 8.37043525 0 3 C0 2.01 0 1.02 0 0 Z M3 2 C4.12333781 6.77418571 6.85328797 9.11109734 10.71875 11.828125 C14.52055227 13.78110562 17.85345644 13.77747692 22 13 C24.50448624 12.1851212 26.64191322 11.20412942 29 10 C26.21325108 8.14216739 24.3476866 7.38748774 21.18359375 6.4921875 C20.25482422 6.22792969 19.32605469 5.96367188 18.36914062 5.69140625 C17.40169922 5.42199219 16.43425781 5.15257812 15.4375 4.875 C14.46619141 4.59785156 13.49488281 4.32070313 12.49414062 4.03515625 C7.81654632 2.57251463 7.81654632 2.57251463 3 2 Z " fill="#B0E07F" transform="translate(213,44)"/>
<path d="M0 0 C4.04513881 -0.11985596 5.80252329 0.25282415 9.546875 2.125 C1.131875 2.62 1.131875 2.62 -7.453125 3.125 C-7.453125 3.455 -7.453125 3.785 -7.453125 4.125 C-8.21238281 4.18558594 -8.97164063 4.24617188 -9.75390625 4.30859375 C-10.74777344 4.39238281 -11.74164063 4.47617188 -12.765625 4.5625 C-13.75175781 4.64371094 -14.73789062 4.72492188 -15.75390625 4.80859375 C-18.54688099 5.04312559 -18.54688099 5.04312559 -21.453125 6.125 C-22.82556634 6.29321752 -24.20102925 6.43800241 -25.578125 6.5625 C-26.856875 6.748125 -28.135625 6.93375 -29.453125 7.125 C-29.783125 7.785 -30.113125 8.445 -30.453125 9.125 C-32.453125 9.45833333 -34.453125 9.79166667 -36.453125 10.125 C-36.783125 10.785 -37.113125 11.445 -37.453125 12.125 C-41.083125 12.125 -44.713125 12.125 -48.453125 12.125 C-45.55215701 9.22403201 -41.96146823 8.43076246 -38.140625 7.1875 C-37.32827393 6.92171143 -36.51592285 6.65592285 -35.67895508 6.38208008 C-23.76861655 2.55212111 -12.48263627 0.6360579 0 0 Z " fill="#9CAE70" transform="translate(515.453125,66.875)"/>
<path d="M0 0 C1.28003906 -0.00128906 2.56007813 -0.00257812 3.87890625 -0.00390625 C4.86624756 -0.00076416 4.86624756 -0.00076416 5.87353516 0.00244141 C7.89883789 0.00783437 9.92392249 0.00245799 11.94921875 -0.00390625 C13.22410156 -0.00261719 14.49898437 -0.00132813 15.8125 0 C16.9787793 0.00112793 18.14505859 0.00225586 19.34667969 0.00341797 C22.140625 0.1328125 22.140625 0.1328125 24.140625 1.1328125 C24.140625 1.7928125 24.140625 2.4528125 24.140625 3.1328125 C22.6865625 2.98972656 22.6865625 2.98972656 21.203125 2.84375 C8.24916668 1.71519163 -4.68330044 2.05767109 -16.859375 7.1328125 C-17.89449219 7.56335938 -18.92960937 7.99390625 -19.99609375 8.4375 C-22.1210126 9.32770269 -24.2412596 10.22918399 -26.35546875 11.14453125 C-28.859375 12.1328125 -28.859375 12.1328125 -30.859375 12.1328125 C-30.859375 11.1428125 -30.859375 10.1528125 -30.859375 9.1328125 C-27.394375 8.6378125 -27.394375 8.6378125 -23.859375 8.1328125 C-23.529375 7.1428125 -23.199375 6.1528125 -22.859375 5.1328125 C-20.65763766 4.34647774 -18.48021383 4.07108859 -16.171875 3.6953125 C-15.40875 3.5096875 -14.645625 3.3240625 -13.859375 3.1328125 C-13.529375 2.4728125 -13.199375 1.8128125 -12.859375 1.1328125 C-8.56507977 0.12730733 -4.39654667 0.00423559 0 0 Z " fill="#93A65F" transform="translate(506.859375,114.8671875)"/>
<path d="M0 0 C0.33 0 0.66 0 1 0 C6.08684064 20.44200145 7.47966622 39.46859239 2 60 C1.67 60 1.34 60 1 60 C0.7763663 58.58566794 0.57173524 57.16832382 0.375 55.75 C0.25898437 54.96109375 0.14296875 54.1721875 0.0234375 53.359375 C-0.00319395 50.67847541 0.63407916 49.27305911 2 47 C1.34 46.67 0.68 46.34 0 46 C0.99 45.505 0.99 45.505 2 45 C2.04976954 40.85572898 2.08589288 36.71162047 2.10986328 32.56713867 C2.11986557 31.15988124 2.13347178 29.7526443 2.15087891 28.34545898 C2.17538366 26.31228552 2.18654083 24.27938894 2.1953125 22.24609375 C2.20578613 21.02591553 2.21625977 19.8057373 2.22705078 18.54858398 C1.98600427 14.78126028 1.12312691 11.59312868 0 8 C-0.21794764 5.28437244 -0.0958736 2.73239755 0 0 Z " fill="#8D9F5E" transform="translate(610,139)"/>
<path d="M0 0 C7.1807625 0.05043958 13.83931049 1.89610579 20.625 4.0625 C21.53378906 4.34416016 22.44257813 4.62582031 23.37890625 4.91601562 C25.58873894 5.60222683 27.79548541 6.29692992 30 7 C30 7.33 30 7.66 30 8 C28.20866022 8.05391993 26.41686101 8.09275571 24.625 8.125 C23.62726563 8.14820312 22.62953125 8.17140625 21.6015625 8.1953125 C19 8 19 8 17 6 C15.07705363 5.59098334 13.13498135 5.26894934 11.1875 5 C7.15447229 4.4388831 3.72868731 3.65413116 0 2 C0 5.3 0 8.6 0 12 C1.340625 12.12375 2.68125 12.2475 4.0625 12.375 C8.24109306 12.83120715 12.00106201 13.72374319 16 15 C16 15.33 16 15.66 16 16 C14.10353002 15.88506243 12.20781668 15.75760358 10.3125 15.625 C9.25675781 15.55539063 8.20101563 15.48578125 7.11328125 15.4140625 C4.09322731 15.01239911 1.75921946 14.25930981 -1 13 C-1.02686553 11.02090602 -1.04633375 9.04171029 -1.0625 7.0625 C-1.07410156 5.96035156 -1.08570313 4.85820313 -1.09765625 3.72265625 C-1 1 -1 1 0 0 Z " fill="#DC7074" transform="translate(311,69)"/>
<path d="M0 0 C0.94875 0.309375 1.8975 0.61875 2.875 0.9375 C7.50938425 2.27928271 12.20552041 2.63342007 17 3 C17 7 17 7 15.125 9.375 C11.01345082 11.51300558 8.62774416 10.87012475 4.20703125 9.96875 C2 9 2 9 0.70703125 7.078125 C-0.12870588 4.62170427 -0.14318554 2.57733969 0 0 Z " fill="#E43D4F" transform="translate(312,71)"/>
<path d="M0 0 C0.66 0.99 1.32 1.98 2 3 C1.125 5.5625 1.125 5.5625 0 8 C0 8.66 0 9.32 0 10 C-0.5775 10.061875 -1.155 10.12375 -1.75 10.1875 C-4.92448483 11.33384174 -6.12848575 13.25956842 -8 16 C-8 16.66 -8 17.32 -8 18 C-8.86625 18.0928125 -8.86625 18.0928125 -9.75 18.1875 C-13.43911231 19.51967945 -15.28909007 22.57818014 -17 26 C-17.99 26 -18.98 26 -20 26 C-19.49300416 21.90178366 -18.55130512 20.12359628 -15.5 17.375 C-11.2155977 13.32260504 -7.56185859 8.92232486 -3.8828125 4.3203125 C-2 2 -2 2 0 0 Z " fill="#6FB058" transform="translate(303,237)"/>
<path d="M0 0 C0.99 0.33 1.98 0.66 3 1 C3.8046875 3.609375 3.8046875 3.609375 4 7 C2.43970053 9.38494444 1.0421205 11.20438617 -0.875 13.25 C-4.29948661 16.86753902 -4.29948661 16.86753902 -7 21 C-7.66 21 -8.32 21 -9 21 C-9.33 21.99 -9.66 22.98 -10 24 C-10.93423645 20.98968256 -11.04449911 20.13349732 -10 17 C-9.01 16.34 -8.02 15.68 -7 15 C-6.690625 13.906875 -6.38125 12.81375 -6.0625 11.6875 C-4.956728 7.84982072 -3.56743999 5.98154322 -1 3 C-0.67 2.01 -0.34 1.02 0 0 Z " fill="#6CB34F" transform="translate(374,215)"/>
<path d="M0 0 C2.31 0 4.62 0 7 0 C5.51277775 4.5768741 1.79320313 6.37393064 -2.125 8.6875 C-2.764375 9.09033203 -3.40375 9.49316406 -4.0625 9.90820312 C-8.75498249 12.72086582 -12.5432054 13.64148009 -18 14 C-17.67 12.68 -17.34 11.36 -17 10 C-15.68 10 -14.36 10 -13 10 C-13 9.34 -13 8.68 -13 8 C-11.88625 7.896875 -10.7725 7.79375 -9.625 7.6875 C-8.42875 7.460625 -7.2325 7.23375 -6 7 C-4.06201737 4.22739701 -4.06201737 4.22739701 -3 2 C-2.01 2 -1.02 2 0 2 C0 1.34 0 0.68 0 0 Z " fill="#5C9E50" transform="translate(286,313)"/>
<path d="M0 0 C0.75 1.6875 0.75 1.6875 1 4 C-0.30163458 5.69153864 -1.64168546 7.3536291 -3 9 C-7.6787476 16.05467412 -11.80561862 23.14714578 -15 31 C-15.33 31 -15.66 31 -16 31 C-16.65239281 27.97703134 -17.1347198 25.09855534 -17 22 C-14.75 19.8125 -14.75 19.8125 -12 18 C-9.34929176 13.73993318 -8.49679042 9.96790418 -8 5 C-6.02 5 -4.04 5 -2 5 C-2 3.68 -2 2.36 -2 1 C-1.34 0.67 -0.68 0.34 0 0 Z " fill="#A0D26E" transform="translate(154,99)"/>
<path d="M0 0 C1.25550659 -0.0009668 1.25550659 -0.0009668 2.53637695 -0.00195312 C8.78872595 0.05122236 14.73212945 0.65715955 20.8125 2.1875 C20.8125 2.5175 20.8125 2.8475 20.8125 3.1875 C20.03350342 3.17178955 19.25450684 3.1560791 18.4519043 3.13989258 C4.16312236 2.89050446 -9.61164542 2.82830644 -23.66015625 5.62890625 C-26.72184758 6.11375881 -28.35660779 6.29779798 -31.1875 5.1875 C-28.64656145 4.53868552 -26.10481727 3.89337101 -23.5625 3.25 C-22.84964844 3.06759766 -22.13679687 2.88519531 -21.40234375 2.69726562 C-14.19078452 0.87783554 -7.43658452 -0.00590381 0 0 Z " fill="#C3E893" transform="translate(206.1875,12.8125)"/>
<path d="M0 0 C0.99 0.33 1.98 0.66 3 1 C3 1.66 3 2.32 3 3 C-12.56036446 9.88838269 -12.56036446 9.88838269 -21 9 C-20.38640625 8.72285156 -19.7728125 8.44570313 -19.140625 8.16015625 C-16.76806242 7.03411964 -16.76806242 7.03411964 -14.75 4.4375 C-11.0084148 1.12109494 -8.95076631 1.15716718 -4 1 C-1.5 1.4375 -1.5 1.4375 0 2 C0 1.34 0 0.68 0 0 Z " fill="#599C50" transform="translate(265,327)"/>
<path d="M0 0 C0.66 0.33 1.32 0.66 2 1 C0.68 2.32 -0.64 3.64 -2 5 C-1.67 5.66 -1.34 6.32 -1 7 C-1.94875 7.2475 -2.8975 7.495 -3.875 7.75 C-7.08874513 8.62828149 -7.08874513 8.62828149 -7.9375 10.9375 C-9.63869883 14.23982714 -12.65042981 14.70718343 -16 16 C-16.99 16.66 -17.98 17.32 -19 18 C-19.33 17.34 -19.66 16.68 -20 16 C-18.625 14 -18.625 14 -17 12 C-16.34 12 -15.68 12 -15 12 C-15 11.34 -15 10.68 -15 10 C-12.36107824 8.21694476 -10.02821137 7.00940379 -7 6 C-7 5.34 -7 4.68 -7 4 C-1.7265625 0.77734375 -1.7265625 0.77734375 0 0 Z " fill="#65A64D" transform="translate(280,264)"/>
<path d="M0 0 C2.29697586 3.62491503 2.14498706 6.52725192 2 10.75 C1.88061843 16.49461256 2.19997808 22.05120473 2.9375 27.75 C3.02451172 28.42901367 3.11152344 29.10802734 3.20117188 29.80761719 C3.59267527 32.66849202 4.08431994 35.25295981 5 38 C5.03954234 40.33299825 5.04401732 42.66708189 5 45 C-2.37745635 37.62254365 -1.06870088 18.37085419 -1.125 8.375 C-1.12975342 7.66287354 -1.13450684 6.95074707 -1.1394043 6.21704102 C-1.12266484 1.12266484 -1.12266484 1.12266484 0 0 Z " fill="#93C277" transform="translate(129,169)"/>
<path d="M0 0 C-2.1875 2.0625 -2.1875 2.0625 -5 4 C-7.5625 3.625 -7.5625 3.625 -10 3 C-11.35719288 3.6166439 -12.68769984 4.29282921 -14 5 C-16.50987545 6.02969249 -19.03527788 7.01376698 -21.5625 8 C-23.99634983 8.92497309 -23.99634983 8.92497309 -26.0625 10.25 C-28 11 -28 11 -30.25 10.125 C-30.8275 9.75375 -31.405 9.3825 -32 9 C-29.3397666 7.67290629 -26.67300297 6.36342075 -24 5.0625 C-23.25621094 4.68931641 -22.51242188 4.31613281 -21.74609375 3.93164062 C-14.51992662 0.44422953 -7.96620715 -0.16596265 0 0 Z " fill="#BDE984" transform="translate(186,18)"/>
<path d="M0 0 C0 0.33 0 0.66 0 1 C18.315 1.99 18.315 1.99 37 3 C37 3.33 37 3.66 37 4 C20.2421982 5.48400152 4.41203046 4.848839 -12 1 C-7.61991557 -1.58464442 -4.88874887 -0.81479148 0 0 Z " fill="#9DAE74" transform="translate(491,273)"/>
<path d="M0 0 C6.17172805 0.62976817 11.36199373 1.93237346 16.3125 5.8125 C20.62298863 11.40017045 20.54117572 18.21423039 21 25 C20.34 25 19.68 25 19 25 C18.505 20.05 18.505 20.05 18 15 C16.35 14.34 14.7 13.68 13 13 C13.33 11.02 13.66 9.04 14 7 C13.34 7 12.68 7 12 7 C12 6.34 12 5.68 12 5 C11.42765625 4.86722656 10.8553125 4.73445313 10.265625 4.59765625 C8.02349125 4.00619683 5.91420381 3.26711146 3.75 2.4375 C3.04359375 2.16808594 2.3371875 1.89867187 1.609375 1.62109375 C1.07828125 1.41613281 0.5471875 1.21117187 0 1 C0 0.67 0 0.34 0 0 Z " fill="#B4DB83" transform="translate(292,44)"/>
<path d="M0 0 C0.66 0.99 1.32 1.98 2 3 C1 6 1 6 -1.875 7.8125 C-5.15456304 9.73857856 -5.15456304 9.73857856 -6.4375 12.875 C-8.25102079 16.50204157 -10.3338749 18.23671195 -13.4765625 20.703125 C-15.13465604 21.94333073 -15.13465604 21.94333073 -16 24 C-16.66 24 -17.32 24 -18 24 C-16.51978375 20.72558224 -14.64606801 18.15276048 -12.375 15.375 C-11.67117188 14.50875 -10.96734375 13.6425 -10.2421875 12.75 C-9.50226563 11.8425 -8.76234375 10.935 -8 10 C-6.49813816 8.12649099 -4.99804877 6.25155932 -3.5 4.375 C-2.33333333 2.91666667 -1.16666667 1.45833333 0 0 Z " fill="#8DBC75" transform="translate(327,207)"/>
<path d="M0 0 C1.65 0 3.3 0 5 0 C5 0.66 5 1.32 5 2 C6.36125 2.2165625 6.36125 2.2165625 7.75 2.4375 C11 3 11 3 13.1875 3.5625 C15.17528206 4.11732027 15.17528206 4.11732027 18 4 C18.33 4.99 18.66 5.98 19 7 C19.99 6.67 20.98 6.34 22 6 C24.6875 6.9375 24.6875 6.9375 27 8 C27 8.33 27 8.66 27 9 C20.04361054 9.40133016 13.59490768 8.3003038 7 6 C6.67 5.34 6.34 4.68 6 4 C4.02477154 2.95191959 2.02518491 1.9479589 0 1 C0 0.67 0 0.34 0 0 Z " fill="#A7D775" transform="translate(185,86)"/>
<path d="M0 0 C0.66 0 1.32 0 2 0 C2 0.66 2 1.32 2 2 C3.98 2 5.96 2 8 2 C7.67 2.66 7.34 3.32 7 4 C5.68 4 4.36 4 3 4 C4.82515499 6.11333736 5.92770144 6.97590048 8.625 7.875 C9.40875 8.24625 10.1925 8.6175 11 9 C11.6484375 11.5703125 11.6484375 11.5703125 12 14 C11.38253906 13.61328125 10.76507813 13.2265625 10.12890625 12.828125 C4.57598977 9.41354622 -0.96964183 6.47623403 -7 4 C-7 3.67 -7 3.34 -7 3 C-4.69 3 -2.38 3 0 3 C0 2.01 0 1.02 0 0 Z " fill="#C94858" transform="translate(338,84)"/>
<path d="M0 0 C12.21 0 24.42 0 37 0 C32.83749008 2.08125496 29.69167474 2.4238761 25.171875 2.6328125 C24.42286926 2.67437469 23.67386353 2.71593689 22.90216064 2.75875854 C20.51846656 2.88912702 18.13434619 3.00722484 15.75 3.125 C14.13016494 3.21143005 12.51037237 3.29866054 10.890625 3.38671875 C6.92751591 3.60042444 2.96397965 3.80313036 -1 4 C-0.67 2.68 -0.34 1.36 0 0 Z " fill="#B7DE8F" transform="translate(263,90)"/>
<path d="M0 0 C1.65 0 3.3 0 5 0 C0.62235376 3.56555204 -4.07060806 4.94722347 -9.375 6.6875 C-10.30828125 7.00783203 -11.2415625 7.32816406 -12.203125 7.65820312 C-16.92464142 9.22646885 -20.95530159 10.44710538 -26 10 C-25.01 9.67 -24.02 9.34 -23 9 C-23 8.34 -23 7.68 -23 7 C-14.57142857 4.71428571 -14.57142857 4.71428571 -10 5 C-9.67 4.01 -9.34 3.02 -9 2 C-6.03 2 -3.06 2 0 2 C0 1.34 0 0.68 0 0 Z " fill="#839851" transform="translate(555,266)"/>
<path d="M0 0 C0.33 0 0.66 0 1 0 C0.67 6.6 0.34 13.2 0 20 C-0.66 20.33 -1.32 20.66 -2 21 C-2.33 21.99 -2.66 22.98 -3 24 C-3.99 24 -4.98 24 -6 24 C-6.25 18.375 -6.25 18.375 -4 15 C-3.34 15 -2.68 15 -2 15 C-2.02320313 14.41992188 -2.04640625 13.83984375 -2.0703125 13.2421875 C-2.18250423 8.38588834 -1.87514915 4.57067605 0 0 Z " fill="#ACC961" transform="translate(310,62)"/>
<path d="M0 0 C-2.71604025 2.98764428 -5.19214722 4.8207566 -9.29003906 5.22705078 C-10.10698242 5.21657715 -10.92392578 5.20610352 -11.765625 5.1953125 C-12.65507812 5.18886719 -13.54453125 5.18242187 -14.4609375 5.17578125 C-15.38132813 5.15902344 -16.30171875 5.14226562 -17.25 5.125 C-18.18585938 5.11597656 -19.12171875 5.10695313 -20.0859375 5.09765625 C-22.39088657 5.07413636 -24.6953116 5.04126853 -27 5 C-27 4.34 -27 3.68 -27 3 C-26.28714844 2.95101563 -25.57429687 2.90203125 -24.83984375 2.8515625 C-20.51641338 2.51406726 -16.55006752 2.16122669 -12.375 0.9375 C-8.16742548 -0.2312707 -4.33429345 -0.17690994 0 0 Z " fill="#5DA34E" transform="translate(236,291)"/>
<path d="M0 0 C0.33 0.66 0.66 1.32 1 2 C2.051875 1.95875 3.10375 1.9175 4.1875 1.875 C7.74010173 1.99147875 9.84866641 2.47208068 13 4 C13 4.66 13 5.32 13 6 C13.66 6.33 14.32 6.66 15 7 C15 7.66 15 8.32 15 9 C13.54054712 8.91291331 12.08234132 8.80473093 10.625 8.6875 C9.81289062 8.62949219 9.00078125 8.57148438 8.1640625 8.51171875 C6 8 6 8 4 5 C1.94074861 4.27617533 1.94074861 4.27617533 0 4 C0 2.68 0 1.36 0 0 Z " fill="#3E9833" transform="translate(160,320)"/>
<path d="M0 0 C0.33 0 0.66 0 1 0 C1.27909548 7.70613629 0.67956655 14.07375709 -3 21 C-4.02518322 23.32307527 -5.01056843 25.66134357 -6 28 C-7.1551906 24.53442819 -6.79218192 23.44441035 -5.8203125 20 C-5.55089844 19.030625 -5.28148438 18.06125 -5.00390625 17.0625 C-4.71386719 16.051875 -4.42382812 15.04125 -4.125 14 C-3.84269531 12.989375 -3.56039062 11.97875 -3.26953125 10.9375 C-2.23979455 7.26753791 -1.20548423 3.61645269 0 0 Z " fill="#A8D47F" transform="translate(95,103)"/>
<path d="M0 0 C0 0.66 0 1.32 0 2 C-2.99106784 4.36503039 -5.02861582 5.91553181 -8.875 6.25 C-9.57625 6.1675 -10.2775 6.085 -11 6 C-11.020625 6.598125 -11.04125 7.19625 -11.0625 7.8125 C-12 10 -12 10 -15.3125 11.8125 C-18.91511697 12.97266479 -19.65392213 13.08581335 -23 12 C-3.24742268 0 -3.24742268 0 0 0 Z " fill="#899D58" transform="translate(459,83)"/>
<path d="M0 0 C4.85718677 0.11607248 9.67590167 0.63391495 14.5 1.1875 C14.5 1.8475 14.5 2.5075 14.5 3.1875 C13.84 3.1875 13.18 3.1875 12.5 3.1875 C12.17 3.8475 11.84 4.5075 11.5 5.1875 C9.025 4.1975 9.025 4.1975 6.5 3.1875 C6.17 3.8475 5.84 4.5075 5.5 5.1875 C0.82538149 5.51363618 -1.66674383 4.89332788 -5.5 2.1875 C-3.5 0.1875 -3.5 0.1875 0 0 Z " fill="#CB273A" transform="translate(348.5,83.8125)"/>
<path d="M0 0 C1.65 0 3.3 0 5 0 C5 3.63 5 7.26 5 11 C2.69 11.33 0.38 11.66 -2 12 C-2.66 11.01 -3.32 10.02 -4 9 C-3.34 9 -2.68 9 -2 9 C-1.34 7.35 -0.68 5.7 0 4 C0.66 4 1.32 4 2 4 C2 3.01 2 2.02 2 1 C1.34 0.67 0.68 0.34 0 0 Z M3 5 C4 7 4 7 4 7 Z " fill="#AC3D4A" transform="translate(355,90)"/>
<path d="M0 0 C1.32 0.33 2.64 0.66 4 1 C4 1.66 4 2.32 4 3 C4.99 3.33 5.98 3.66 7 4 C7.625 5.9375 7.625 5.9375 8 8 C8.33 8.66 8.66 9.32 9 10 C9.66 9.34 10.32 8.68 11 8 C11.66 8 12.32 8 13 8 C11.92598892 10.91517292 11.22189824 12.77810176 9 15 C7.86863414 13.44210317 6.74517679 11.87846143 5.625 10.3125 C4.99851562 9.44238281 4.37203125 8.57226562 3.7265625 7.67578125 C2.10584157 5.16403048 1.00141912 2.80700813 0 0 Z " fill="#72AC62" transform="translate(106,269)"/>
<path d="M0 0 C0 0.66 0 1.32 0 2 C-6.3070477 3.84336418 -12.5533526 4.81578537 -19 3 C-19.66 2.01 -20.32 1.02 -21 0 C-20.11957031 0.01160156 -19.23914063 0.02320313 -18.33203125 0.03515625 C-17.17058594 0.04417969 -16.00914062 0.05320313 -14.8125 0.0625 C-13.66394531 0.07410156 -12.51539063 0.08570313 -11.33203125 0.09765625 C-8.07821865 0.09888432 -8.07821865 0.09888432 -5.26171875 -0.56640625 C-3 -1 -3 -1 0 0 Z " fill="#ABDC76" transform="translate(243,56)"/>
<path d="M0 0 C1.27230469 0.21462891 1.27230469 0.21462891 2.5703125 0.43359375 C6.00192112 1.00031727 9.43696464 1.5362701 12.875 2.0625 C14.02742187 2.23910156 15.17984375 2.41570312 16.3671875 2.59765625 C17.23601562 2.73042969 18.10484375 2.86320312 19 3 C19 3.66 19 4.32 19 5 C21.97 5 24.94 5 28 5 C28 5.33 28 5.66 28 6 C18.61252007 6.38934249 9.08225294 5.483079 0 3 C0 2.01 0 1.02 0 0 Z " fill="#63A05D" transform="translate(186,334)"/>
<path d="M0 0 C8.91765652 0.23080993 16.70624517 3.00318992 25 6 C24.67 6.66 24.34 7.32 24 8 C23.31035156 7.80664062 22.62070312 7.61328125 21.91015625 7.4140625 C16.62185877 5.94871807 11.34009273 4.57340294 5.97265625 3.4296875 C3.97031463 2.99353388 1.98562154 2.50640012 0 2 C0 1.34 0 0.68 0 0 Z " fill="#A1B574" transform="translate(526,68)"/>
<path d="M0 0 C6.48979592 0.48979592 6.48979592 0.48979592 8.9375 2.9375 C10 5 10 5 10 7 C10.61875 7.12375 11.2375 7.2475 11.875 7.375 C14 8 14 8 16 10 C9.15550444 9.85437243 4.83393195 6.74624157 0 2 C0 1.34 0 0.68 0 0 Z " fill="#559D4B" transform="translate(143,312)"/>
<path d="M0 0 C1.65 0 3.3 0 5 0 C5.33 0.99 5.66 1.98 6 3 C6.66 3 7.32 3 8 3 C8 3.66 8 4.32 8 5 C5.08291076 6.98362069 3.87619096 6.9876191 0.25 6.625 C-0.8225 6.41875 -1.895 6.2125 -3 6 C-2.67 4.68 -2.34 3.36 -2 2 C-1.34 2 -0.68 2 0 2 C0 1.34 0 0.68 0 0 Z " fill="#DD3649" transform="translate(329,76)"/>
<path d="M0 0 C-0.99 0.495 -0.99 0.495 -2 1 C-2.33 1.66 -2.66 2.32 -3 3 C-5 3.33333333 -7 3.66666667 -9 4 C-9.33 4.66 -9.66 5.32 -10 6 C-13.63 6 -17.26 6 -21 6 C-15.94499431 0.94499431 -6.95115593 -0.63192327 0 0 Z " fill="#8FA449" transform="translate(488,73)"/>
<path d="M0 0 C3.37462715 0.54723683 5.08235 1.0549 8 3 C8.6875 5.125 8.6875 5.125 9 7 C5.61608307 8.06351675 4.4195366 8.21442982 1.1875 6.5625 C0.465625 6.046875 -0.25625 5.53125 -1 5 C-0.67 3.35 -0.34 1.7 0 0 Z " fill="#58A547" transform="translate(177,280)"/>
<path d="M0 0 C5.76832116 1.2143834 10.00186731 2.87616707 15 6 C15 6.66 15 7.32 15 8 C17.97 8.495 17.97 8.495 21 9 C21 9.99 21 10.98 21 12 C17.32790921 10.60966128 13.93649918 8.95933171 10.5 7.0625 C9.5821875 6.55847656 8.664375 6.05445313 7.71875 5.53515625 C2.48157895 2.57796053 2.48157895 2.57796053 0 1 C0 0.67 0 0.34 0 0 Z " fill="#92A768" transform="translate(426,250)"/>
<path d="M0 0 C-2.97 4.29 -5.94 8.58 -9 13 C-10.10291051 8.58835794 -9.96945153 8.61066114 -8 5 C-7.62331656 3.34259285 -7.27942455 1.67654729 -7 0 C-3.98968256 -0.93423645 -3.13349732 -1.04449911 0 0 Z " fill="#8AA057" transform="translate(602,226)"/>
<path d="M0 0 C0.66 0 1.32 0 2 0 C2.309375 0.9590625 2.309375 0.9590625 2.625 1.9375 C3.89538209 4.34925077 3.89538209 4.34925077 7.125 4.75 C8.07375 4.8325 9.0225 4.915 10 5 C10 5.99 10 6.98 10 8 C10.66 8 11.32 8 12 8 C12 8.99 12 9.98 12 11 C4.02511211 9.21076233 4.02511211 9.21076233 1.51171875 6.2421875 C0.4375 4.3125 0.4375 4.3125 -1 1 C-0.67 0.67 -0.34 0.34 0 0 Z " fill="#619D56" transform="translate(132,300)"/>
<path d="M0 0 C0.65484375 0.12117188 1.3096875 0.24234375 1.984375 0.3671875 C8.97803753 1.65133457 15.9832698 2.84891337 23 4 C23 4.33 23 4.66 23 5 C22.08476562 5.06058594 21.16953125 5.12117188 20.2265625 5.18359375 C19.03804687 5.26738281 17.84953125 5.35117187 16.625 5.4375 C14.84996094 5.55931641 14.84996094 5.55931641 13.0390625 5.68359375 C10.08481099 5.81084936 10.08481099 5.81084936 8 7 C8 6.01 8 5.02 8 4 C5.69 3.67 3.38 3.34 1 3 C0.67 2.01 0.34 1.02 0 0 Z " fill="#70A764" transform="translate(197,289)"/>
<path d="M0 0 C0.66 0.33 1.32 0.66 2 1 C-0.81296175 5.72577574 -4.11779778 10.24840796 -9 13 C-11.21875 12.66015625 -11.21875 12.66015625 -13 12 C-12.113125 11.278125 -11.22625 10.55625 -10.3125 9.8125 C-7.37086341 7.36461329 -4.66986956 4.74403261 -2 2 C-1.34 1.34 -0.68 0.68 0 0 Z " fill="#91A564" transform="translate(407,118)"/>
<path d="M0 0 C0.33 0.99 0.66 1.98 1 3 C3.26225382 4.07254351 3.26225382 4.07254351 6 5 C8.00751815 5.98482022 10.00934459 6.98152514 12 8 C11.01 8.495 11.01 8.495 10 9 C6.94428869 7.84903045 4.01357533 6.48320764 1.04296875 5.12890625 C-1.93827096 4.02290076 -3.86314674 3.68795701 -7 4 C-7.99 4.495 -7.99 4.495 -9 5 C-8.67 3.68 -8.34 2.36 -8 1 C-5.36 0.67 -2.72 0.34 0 0 Z " fill="#B0DC88" transform="translate(180,82)"/>
<path d="M0 0 C0 0.99 0 1.98 0 3 C-0.99 3.495 -0.99 3.495 -2 4 C-2.65555119 6.52733235 -2.65555119 6.52733235 -3 9 C-4.32 8.67 -5.64 8.34 -7 8 C-7.66 5.69 -8.32 3.38 -9 1 C-6.04335481 -0.4783226 -3.25770263 -0.06032783 0 0 Z " fill="#AF162A" transform="translate(357,91)"/>
<path d="M0 0 C0.33 0.66 0.66 1.32 1 2 C1.66 2 2.32 2 3 2 C6.5439162 6.87288478 9.46197215 12.15549417 11 18 C8.13367003 16.94901234 7.16993357 16.33137046 5.75 13.5625 C5 11 5 11 5 8 C4.01 8 3.02 8 2 8 C1.87625 7.360625 1.7525 6.72125 1.625 6.0625 C1.315625 5.0415625 1.315625 5.0415625 1 4 C0.34 3.67 -0.32 3.34 -1 3 C-0.67 2.01 -0.34 1.02 0 0 Z " fill="#859D58" transform="translate(594,108)"/>
<path d="M0 0 C1.32 0.66 2.64 1.32 4 2 C4 2.66 4 3.32 4 4 C4.85851562 4.39832031 4.85851562 4.39832031 5.734375 4.8046875 C8.1076012 6.05676891 10.12213286 7.4936352 12.25 9.125 C12.95640625 9.66382813 13.6628125 10.20265625 14.390625 10.7578125 C14.92171875 11.16773438 15.4528125 11.57765625 16 12 C12.66411172 13.11196276 11.29427581 13.09809194 8 12 C6.875 10.125 6.875 10.125 6 8 C5.46375 7.46375 4.9275 6.9275 4.375 6.375 C3.92125 5.92125 3.4675 5.4675 3 5 C3 4.34 3 3.68 3 3 C1.68 2.67 0.36 2.34 -1 2 C-0.67 1.34 -0.34 0.68 0 0 Z " fill="#94A868" transform="translate(419,186)"/>
<path d="M0 0 C2.06183633 -0.08150744 4.12461349 -0.1394194 6.1875 -0.1875 C7.33605469 -0.22230469 8.48460937 -0.25710938 9.66796875 -0.29296875 C13.29157624 0.02563683 15.14639144 0.78052668 18 3 C18 3.66 18 4.32 18 5 C11.56318772 4.48914188 6.04057576 3.27057103 0 1 C0 0.67 0 0.34 0 0 Z " fill="#95A869" transform="translate(459,267)"/>
<path d="M0 0 C0.66 0.33 1.32 0.66 2 1 C1.360625 1.845625 0.72125 2.69125 0.0625 3.5625 C-2.1966273 6.90728565 -2.67791759 9.97396992 -3 14 C-3.66 14 -4.32 14 -5 14 C-5 13.34 -5 12.68 -5 12 C-5.66 12 -6.32 12 -7 12 C-6.125 7.25 -6.125 7.25 -5 5 C-4.34 5 -3.68 5 -3 5 C-2.690625 4.360625 -2.38125 3.72125 -2.0625 3.0625 C-1 1 -1 1 0 0 Z " fill="#67AD49" transform="translate(314,226)"/>
<path d="M0 0 C3.37280795 0.56213466 5.97595434 1.43920224 9 3 C10.3242287 3.36784131 11.65613912 3.71202981 13 4 C11.68 5.32 10.36 6.64 9 8 C5.01824456 5.89851796 2.64960955 3.63094642 0 0 Z " fill="#8A9B63" transform="translate(410,166)"/>
<path d="M0 0 C2.47923801 -0.02685095 4.9581884 -0.04676547 7.4375 -0.0625 C8.14455078 -0.07087891 8.85160156 -0.07925781 9.58007812 -0.08789062 C11.38693559 -0.09653588 13.19387603 -0.05220011 15 0 C15.33 0.33 15.66 0.66 16 1 C17.84891946 1.23363881 19.70488031 1.41303635 21.5625 1.5625 C22.57441406 1.64628906 23.58632812 1.73007813 24.62890625 1.81640625 C25.80259766 1.90728516 25.80259766 1.90728516 27 2 C27 2.33 27 2.66 27 3 C17.76984056 3.24908976 9.08078495 2.68944836 0 1 C0 0.67 0 0.34 0 0 Z " fill="#AEE088" transform="translate(208,95)"/>
<path d="M0 0 C0.33 0 0.66 0 1 0 C1.38167939 13.1043257 1.38167939 13.1043257 -1 18 C-1.66 18.33 -2.32 18.66 -3 19 C-3.45510807 12.32508169 -1.7672426 6.40625443 0 0 Z " fill="#A6D182" transform="translate(87,131)"/>
<path d="M0 0 C5.27112904 2.79692561 9.59398317 5.98235547 14 10 C13.34 10.66 12.68 11.32 12 12 C11.34 11.67 10.68 11.34 10 11 C10 10.34 10 9.68 10 9 C9.38125 8.87625 8.7625 8.7525 8.125 8.625 C6 8 6 8 4 6 C3.29875 5.525625 2.5975 5.05125 1.875 4.5625 C1.25625 4.046875 0.6375 3.53125 0 3 C0 2.01 0 1.02 0 0 Z " fill="#8B9F5B" transform="translate(569,84)"/>
<path d="M0 0 C1 3 1 3 -0.0390625 5.375 C-0.56242187 6.24125 -1.08578125 7.1075 -1.625 8 C-2.13289063 8.86625 -2.64078125 9.7325 -3.1640625 10.625 C-5.18271754 13.23636652 -7.09083206 14.49080707 -10 16 C-8.55797524 11.84848662 -6.4989562 8.70021555 -3.875 5.1875 C-3.15054688 4.21167969 -2.42609375 3.23585937 -1.6796875 2.23046875 C-0.84824219 1.12638672 -0.84824219 1.12638672 0 0 Z " fill="#BDDE91" transform="translate(121,56)"/>
<path d="M0 0 C-0.25390625 1.89453125 -0.25390625 1.89453125 -1 4 C-2.77734375 5.01171875 -2.77734375 5.01171875 -4.9375 5.6875 C-6.00291016 6.03361328 -6.00291016 6.03361328 -7.08984375 6.38671875 C-7.72019531 6.58910156 -8.35054687 6.79148437 -9 7 C-9.99 7.495 -9.99 7.495 -11 8 C-13.125 7.0625 -13.125 7.0625 -15 6 C-12.87717331 4.99539469 -10.75166979 3.99644398 -8.625 3 C-7.44164062 2.443125 -6.25828125 1.88625 -5.0390625 1.3125 C-2 0 -2 0 0 0 Z " fill="#C3E88C" transform="translate(169,21)"/>
<path d="M0 0 C0.66 0.99 1.32 1.98 2 3 C2.66 2.01 3.32 1.02 4 0 C5 2 5 2 4.375 5.375 C2.85774873 9.37502607 1.58185914 10.76133804 -2 13 C-2.66 13 -3.32 13 -4 13 C-2.25 8.125 -2.25 8.125 0 7 C0 4.69 0 2.38 0 0 Z " fill="#61A055" transform="translate(312,288)"/>
<path d="M0 0 C-2.2898234 1.0044134 -4.5816599 2.00367612 -6.875 3 C-7.52597656 3.28617187 -8.17695313 3.57234375 -8.84765625 3.8671875 C-13.7734375 6 -13.7734375 6 -16 6 C-16 5.01 -16 4.02 -16 3 C-12.535 2.505 -12.535 2.505 -9 2 C-8.67 1.01 -8.34 0.02 -8 -1 C-4.64446317 -2.50420616 -3.0935991 -1.67975297 0 0 Z " fill="#8EA461" transform="translate(492,121)"/>
<path d="M0 0 C0.8125 1.625 0.8125 1.625 1 4 C-1.25 7.25 -1.25 7.25 -4 10 C-4.99 10 -5.98 10 -7 10 C-7.33 10.66 -7.66 11.32 -8 12 C-8 9.69 -8 7.38 -8 5 C-6.02 5 -4.04 5 -2 5 C-2 3.68 -2 2.36 -2 1 C-1.34 0.67 -0.68 0.34 0 0 Z " fill="#9DCF66" transform="translate(154,99)"/>
<path d="M0 0 C1.32 0.33 2.64 0.66 4 1 C3.34 1 2.68 1 2 1 C1.79375 1.680625 1.5875 2.36125 1.375 3.0625 C-0.45408866 6.97009851 -3.10279034 9.83857939 -6 13 C-6.66 12.67 -7.32 12.34 -8 12 C-8 11.34 -8 10.68 -8 10 C-7.01 10 -6.02 10 -5 10 C-5 8.35 -5 6.7 -5 5 C-3.68 5 -2.36 5 -1 5 C-0.67 3.35 -0.34 1.7 0 0 Z " fill="#87BC76" transform="translate(358,241)"/>
<path d="M0 0 C0.66 0 1.32 0 2 0 C1.6684371 3.0945871 0.97117406 4.02804686 -1.3125 6.25 C-4 8 -4 8 -8 8 C-8.33 6.35 -8.66 4.7 -9 3 C-8.01 3.33 -7.02 3.66 -6 4 C-5.67 4.99 -5.34 5.98 -5 7 C-5 5.68 -5 4.36 -5 3 C-3.68 3 -2.36 3 -1 3 C-0.67 2.01 -0.34 1.02 0 0 Z " fill="#549D49" transform="translate(305,301)"/>
<path d="M0 0 C4.29637058 0.53704632 7.9690903 1.66378983 11.96484375 3.234375 C14.93030802 4.34998152 17.94293354 5.1720445 21 6 C16.91556885 7.53166168 13.20544343 6.63081652 9 6 C9 5.34 9 4.68 9 4 C8.2575 3.855625 7.515 3.71125 6.75 3.5625 C4.47972261 3.09812508 2.24240521 2.58136431 0 2 C0 1.34 0 0.68 0 0 Z " fill="#869A59" transform="translate(472,221)"/>
<path d="M0 0 C0 0.99 0 1.98 0 3 C-3.50907787 6.08114155 -5.15068663 7.05479441 -9.875 6.75 C-10.90625 6.5025 -11.9375 6.255 -13 6 C-10.65890118 4.43926745 -8.43666597 3.13626133 -5.9375 1.875 C-5.24527344 1.52179688 -4.55304687 1.16859375 -3.83984375 0.8046875 C-2 0 -2 0 0 0 Z " fill="#8BA25B" transform="translate(543,221)"/>
<path d="M0 0 C0.66 0.66 1.32 1.32 2 2 C1.625 5.125 1.625 5.125 1 8 C1.66 8.33 2.32 8.66 3 9 C2.01 9 1.02 9 0 9 C-5 3.65116279 -5 3.65116279 -5 1 C-2.625 0.375 -2.625 0.375 0 0 Z " fill="#849E50" transform="translate(381,200)"/>
<path d="M0 0 C2.3125 1.375 2.3125 1.375 4 3 C3.67 3.99 3.34 4.98 3 6 C0.69 6 -1.62 6 -4 6 C-4.33 4.68 -4.66 3.36 -5 2 C-2.75 0.8125 -2.75 0.8125 0 0 Z " fill="#CF2C3D" transform="translate(335,81)"/>
<path d="M0 0 C0.763125 0.515625 1.52625 1.03125 2.3125 1.5625 C3.199375 2.036875 4.08625 2.51125 5 3 C5.99 2.67 6.98 2.34 8 2 C9.24546405 4.49092811 8.7767578 5.41080733 8 8 C5.03 7.505 5.03 7.505 2 7 C1.34 4.69 0.68 2.38 0 0 Z " fill="#58A346" transform="translate(119,286)"/>
<path d="M0 0 C0 3 0 3 -1 5 C-1.66 5 -2.32 5 -3 5 C-3.33 6.32 -3.66 7.64 -4 9 C-4.66 9 -5.32 9 -6 9 C-6 10.32 -6 11.64 -6 13 C-6.99 13.33 -7.98 13.66 -9 14 C-9 9.0291691 -7.8345788 8.26983318 -4.5 4.75 C-3.6646875 3.85796875 -2.829375 2.9659375 -1.96875 2.046875 C-1.3190625 1.37140625 -0.669375 0.6959375 0 0 Z " fill="#98C482" transform="translate(338,194)"/>
<path d="M0 0 C0.66 0.33 1.32 0.66 2 1 C0.5625 3.4375 0.5625 3.4375 -2 6 C-4.99304558 6.73151889 -7.92553213 6.92773687 -11 7 C-7.54143152 4.05004453 -4.19978515 1.77324262 0 0 Z " fill="#7FB26E" transform="translate(259,279)"/>
<path d="M0 0 C2.79173055 -0.02690104 5.58320348 -0.04679053 8.375 -0.0625 C9.56609375 -0.07506836 9.56609375 -0.07506836 10.78125 -0.08789062 C16.7734375 -0.11328125 16.7734375 -0.11328125 19 1 C19 1.66 19 2.32 19 3 C16.39547729 2.85913398 13.79149803 2.71251536 11.1875 2.5625 C10.08051758 2.50352539 10.08051758 2.50352539 8.95117188 2.44335938 C5.76928658 2.25618965 3.03837622 2.01279207 0 1 C0 0.67 0 0.34 0 0 Z " fill="#A5B479" transform="translate(512,115)"/>
<path d="M0 0 C0.66 0.33 1.32 0.66 2 1 C0.75314243 2.58580914 -0.49763026 4.1685404 -1.75 5.75 C-2.44609375 6.63171875 -3.1421875 7.5134375 -3.859375 8.421875 C-5.79945897 10.75847248 -7.81512186 12.8938562 -10 15 C-7.58779216 8.69114874 -5.66659818 3.98193385 0 0 Z " fill="#A7DC65" transform="translate(127,52)"/>
<path d="M0 0 C3.26008643 3.16952847 6.22237877 6.39937989 9 10 C8.01 10.495 8.01 10.495 7 11 C7 10.34 7 9.68 7 9 C4.03 8.505 4.03 8.505 1 8 C0.67 5.36 0.34 2.72 0 0 Z " fill="#8DA55E" transform="translate(385,153)"/>
<path d="M0 0 C0.66 0 1.32 0 2 0 C3.7265625 1.75 3.7265625 1.75 5.625 4 C6.25664062 4.7425 6.88828125 5.485 7.5390625 6.25 C8.02117187 6.8275 8.50328125 7.405 9 8 C8.67 8.66 8.34 9.32 8 10 C6.68 9.34 5.36 8.68 4 8 C4 7.01 4 6.02 4 5 C2.68 5 1.36 5 0 5 C0 3.35 0 1.7 0 0 Z " fill="#8EA163" transform="translate(376,144)"/>
<path d="M0 0 C0 0.99 0 1.98 0 3 C-1.5005186 4.23955884 -3.00471913 5.47555511 -4.54296875 6.66796875 C-6.52877908 8.48341465 -7.12037914 10.49646372 -8 13 C-8.99 13.66 -9.98 14.32 -11 15 C-10.35891863 13.32332564 -9.68528045 11.65910004 -9 10 C-8.5875 8.989375 -8.175 7.97875 -7.75 6.9375 C-5.67634115 3.45671551 -3.47360942 2.00697433 0 0 Z " fill="#A1D964" transform="translate(118,67)"/>
<path d="M0 0 C3.72433382 1.2125738 7.37802806 2.50859979 11 4 C11 4.66 11 5.32 11 6 C11.99 6.33 12.98 6.66 14 7 C13.67 7.99 13.34 8.98 13 10 C10.8304939 8.52485505 8.66436293 7.0451561 6.5 5.5625 C5.87996094 5.14162109 5.25992187 4.72074219 4.62109375 4.28710938 C3.06289602 3.21691863 1.52921949 2.11120482 0 1 C0 0.67 0 0.34 0 0 Z " fill="#9BAC6D" transform="translate(412,240)"/>
<path d="M0 0 C0.33 0.99 0.66 1.98 1 3 C1.66 3 2.32 3 3 3 C3 3.66 3 4.32 3 5 C3.99 5 4.98 5 6 5 C5.625 7.4375 5.625 7.4375 5 10 C4.01 10.495 4.01 10.495 3 11 C3 10.01 3 9.02 3 8 C1.05990478 6.29467677 1.05990478 6.29467677 -1 5 C-0.67 3.35 -0.34 1.7 0 0 Z " fill="#6DBA48" transform="translate(353,190)"/>
<path d="M0 0 C2.5 2.25 2.5 2.25 5 5 C5 6.32 5 7.64 5 9 C3.35 8.67 1.7 8.34 0 8 C0 5.36 0 2.72 0 0 Z " fill="#8EA25A" transform="translate(362,126)"/>
<path d="M0 0 C4.71403788 0.47939368 8.66579301 0.96834048 13 3 C13 3.99 13 4.98 13 6 C9.51038791 6 7.88519705 5.09620626 4.8125 3.5 C3.91144531 3.0359375 3.01039063 2.571875 2.08203125 2.09375 C1.39496094 1.7328125 0.70789063 1.371875 0 1 C0 0.67 0 0.34 0 0 Z " fill="#95AB61" transform="translate(532,118)"/>
<path d="M0 0 C0 0.66 0 1.32 0 2 C-0.66 2 -1.32 2 -2 2 C-2.268125 2.61875 -2.53625 3.2375 -2.8125 3.875 C-4 6 -4 6 -7 8 C-9.1875 7.625 -9.1875 7.625 -11 7 C-9.54634731 5.82750647 -8.08692581 4.66216184 -6.625 3.5 C-5.40683594 2.52546875 -5.40683594 2.52546875 -4.1640625 1.53125 C-2 0 -2 0 0 0 Z " fill="#99AB6F" transform="translate(430,101)"/>
<path d="M0 0 C1.63001953 0.01353516 1.63001953 0.01353516 3.29296875 0.02734375 C4.12441406 0.03894531 4.95585937 0.05054687 5.8125 0.0625 C5.8125 0.7225 5.8125 1.3825 5.8125 2.0625 C0.45154667 3.19112175 -4.74056686 3.15938221 -10.1875 3.0625 C-8.19010785 -0.9322843 -3.93646808 -0.04232761 0 0 Z " fill="#9DD467" transform="translate(294.1875,87.9375)"/>
<path d="M0 0 C0.33 0.66 0.66 1.32 1 2 C0.03685937 4.01800895 -0.96958573 6.01549844 -2 8 C-2.309375 9.0725 -2.61875 10.145 -2.9375 11.25 C-4 14 -4 14 -6.125 15.375 C-6.74375 15.58125 -7.3625 15.7875 -8 16 C-6.57250019 12.20950293 -4.83763458 8.72877544 -2.875 5.1875 C-2.33617188 4.21167969 -1.79734375 3.23585938 -1.2421875 2.23046875 C-0.83226563 1.49441406 -0.42234375 0.75835937 0 0 Z " fill="#B8D98C" transform="translate(110,72)"/>
<path d="M0 0 C0.94359375 0.41572266 0.94359375 0.41572266 1.90625 0.83984375 C7.36410208 3.14956729 12.08810648 4.56208196 18 5 C18 5.33 18 5.66 18 6 C13.71 6 9.42 6 5 6 C4.67 5.01 4.34 4.02 4 3 C2.68 3 1.36 3 0 3 C0 2.01 0 1.02 0 0 Z " fill="#D36881" transform="translate(343,77)"/>
<path d="M0 0 C0 0.66 0 1.32 0 2 C-4.24633878 5.41778487 -7.59305933 6.56744475 -13 7 C-10.84545751 4.64283596 -8.80280126 3.21033856 -5.9375 1.8125 C-5.24527344 1.46832031 -4.55304688 1.12414062 -3.83984375 0.76953125 C-2 0 -2 0 0 0 Z " fill="#98AA60" transform="translate(459,83)"/>
<path d="M0 0 C-5.54165256 3.77304004 -9.34454208 4.54330269 -16 4 C-13.03017788 2.41839705 -10.09120779 1.29656358 -6.875 0.3125 C-6.00617188 0.04050781 -5.13734375 -0.23148437 -4.2421875 -0.51171875 C-2 -1 -2 -1 0 0 Z " fill="#82B66E" transform="translate(248,287)"/>
<path d="M0 0 C0.66 0 1.32 0 2 0 C2 0.66 2 1.32 2 2 C2.66 2 3.32 2 4 2 C4.33 5.3 4.66 8.6 5 12 C4.01 11.67 3.02 11.34 2 11 C0.875 7.5625 0.875 7.5625 0 4 C-0.33 3.34 -0.66 2.68 -1 2 C-0.67 1.34 -0.34 0.68 0 0 Z " fill="#5DA741" transform="translate(99,249)"/>
<path d="M0 0 C1.31611677 0.95336021 2.62778961 1.91285774 3.9375 2.875 C4.66839844 3.40867188 5.39929688 3.94234375 6.15234375 4.4921875 C8 6 8 6 9 8 C7.02 8 5.04 8 3 8 C2.67 6.35 2.34 4.7 2 3 C1.01 2.67 0.02 2.34 -1 2 C-0.67 1.34 -0.34 0.68 0 0 Z " fill="#8AA15F" transform="translate(403,172)"/>
<path d="M0 0 C2.31 0 4.62 0 7 0 C7.33 1.32 7.66 2.64 8 4 C5 5 5 5 2.3125 3.6875 C1.549375 3.130625 0.78625 2.57375 0 2 C0 1.34 0 0.68 0 0 Z " fill="#3D9632" transform="translate(179,329)"/>
<path d="M0 0 C0.99 0.33 1.98 0.66 3 1 C1.625 3.5 1.625 3.5 0 6 C-0.66 6 -1.32 6 -2 6 C-2.33 6.99 -2.66 7.98 -3 9 C-3.93423645 5.98968256 -4.04449911 5.13349732 -3 2 C-2.01 1.34 -1.02 0.68 0 0 Z " fill="#83B96D" transform="translate(367,230)"/>
<path d="M0 0 C3.39417765 3.12621626 5.6062718 5.56541027 7 10 C5.35 9.67 3.7 9.34 2 9 C1.34 6.03 0.68 3.06 0 0 Z " fill="#8EBF70" transform="translate(352,184)"/>
<path d="M0 0 C0.625 1.875 0.625 1.875 1 4 C0.34 4.66 -0.32 5.32 -1 6 C-1.495 7.155 -1.99 8.31 -2.5 9.5 C-4 13 -4 13 -6 15 C-6.37815631 10.62756771 -5.34305827 8.34852855 -3 4.6875 C-2.1646875 3.36298828 -2.1646875 3.36298828 -1.3125 2.01171875 C-0.879375 1.34785156 -0.44625 0.68398437 0 0 Z " fill="#98D262" transform="translate(102,93)"/>
<path d="M0 0 C2.02408755 0.09002398 4.04544287 0.24641038 6.0625 0.4375 C7.71958984 0.59025391 7.71958984 0.59025391 9.41015625 0.74609375 C10.26480469 0.82988281 11.11945313 0.91367187 12 1 C12 1.66 12 2.32 12 3 C10.39620659 3.05416188 8.79188594 3.09286638 7.1875 3.125 C6.29417969 3.14820313 5.40085938 3.17140625 4.48046875 3.1953125 C2 3 2 3 -1 1 C-0.67 0.67 -0.34 0.34 0 0 Z " fill="#46903F" transform="translate(228,336)"/>
<path d="M0 0 C0.66 0 1.32 0 2 0 C1.67 1.65 1.34 3.3 1 5 C-0.98 5.33 -2.96 5.66 -5 6 C-4.67 4.68 -4.34 3.36 -4 2 C-2.68 2 -1.36 2 0 2 C0 1.34 0 0.68 0 0 Z " fill="#419635" transform="translate(273,321)"/>
<path d="M0 0 C2.97 0.495 2.97 0.495 6 1 C6.66 2.98 7.32 4.96 8 7 C1.125 3.375 1.125 3.375 0 0 Z " fill="#69A85F" transform="translate(143,312)"/>
<path d="M0 0 C0.99 0.33 1.98 0.66 3 1 C2.04663979 2.31611677 1.08714226 3.62778961 0.125 4.9375 C-0.40867187 5.66839844 -0.94234375 6.39929688 -1.4921875 7.15234375 C-3 9 -3 9 -5 10 C-4.75 7.125 -4.75 7.125 -4 4 C-1.9375 2.625 -1.9375 2.625 0 2 C0 1.34 0 0.68 0 0 Z " fill="#75AC69" transform="translate(320,286)"/>
<path d="M0 0 C1.093125 0.0825 2.18625 0.165 3.3125 0.25 C3.3125 0.91 3.3125 1.57 3.3125 2.25 C2.57 2.353125 1.8275 2.45625 1.0625 2.5625 C-1.85764018 3.29253504 -3.41937554 4.31789398 -5.6875 6.25 C-6.0175 5.59 -6.3475 4.93 -6.6875 4.25 C-4.79150483 0.68106792 -4.16790733 0.28256999 0 0 Z " fill="#5DA64B" transform="translate(266.6875,275.75)"/>
<path d="M0 0 C0.66 0.33 1.32 0.66 2 1 C1.67 2.98 1.34 4.96 1 7 C-1.31 6.67 -3.62 6.34 -6 6 C-6 5.34 -6 4.68 -6 4 C-4.36368108 2.95107762 -2.69514137 1.95093297 -1 1 C-0.67 0.67 -0.34 0.34 0 0 Z " fill="#6DAD5D" transform="translate(271,270)"/>
<path d="M0 0 C-1.09918816 0.98475214 -2.2045602 1.96260473 -3.3125 2.9375 C-3.92738281 3.48277344 -4.54226563 4.02804687 -5.17578125 4.58984375 C-7 6 -7 6 -10 7 C-10 6.01 -10 5.02 -10 4 C-9.01 4 -8.02 4 -7 4 C-7 3.01 -7 2.02 -7 1 C-3.375 -1.125 -3.375 -1.125 0 0 Z " fill="#92A85D" transform="translate(576,256)"/>
<path d="M0 0 C2.22141711 4.10107774 5 9.26557671 5 14 C4.01 13.67 3.02 13.34 2 13 C2 11.35 2 9.7 2 8 C1.34 8 0.68 8 0 8 C0 5.36 0 2.72 0 0 Z " fill="#84B56C" transform="translate(134,214)"/>
<path d="M0 0 C2.66735273 2.48952921 4.55746343 4.63408134 6 8 C5.01 8.495 5.01 8.495 4 9 C4 8.34 4 7.68 4 7 C2.35 7.33 0.7 7.66 -1 8 C-0.67 5.36 -0.34 2.72 0 0 Z " fill="#8ABE6D" transform="translate(361,197)"/>
<path d="M0 0 C1.12894876 0.93274109 2.25300876 1.87140122 3.375 2.8125 C4.00148438 3.33457031 4.62796875 3.85664063 5.2734375 4.39453125 C7 6 7 6 9 9 C8.01 9.495 8.01 9.495 7 10 C7 9.34 7 8.68 7 8 C4.525 7.01 4.525 7.01 2 6 C2 5.34 2 4.68 2 4 C1.34 3.67 0.68 3.34 0 3 C0 2.01 0 1.02 0 0 Z " fill="#8C9C68" transform="translate(394,163)"/>
<path d="M0 0 C1.32 0 2.64 0 4 0 C4.33 3.3 4.66 6.6 5 10 C2.327664 6.43688534 1.22736029 4.15414253 0 0 Z " fill="#889D57" transform="translate(350,160)"/>
<path d="M0 0 C2.71675995 0.36712972 4.61063713 0.72744599 6.875 2.3125 C7.431875 3.1478125 7.431875 3.1478125 8 4 C7.5703125 6.10546875 7.5703125 6.10546875 7 8 C5.83035398 6.8572081 4.66435444 5.71068285 3.5 4.5625 C2.8503125 3.92441406 2.200625 3.28632813 1.53125 2.62890625 C0 1 0 1 0 0 Z " fill="#899F5B" transform="translate(402,158)"/>
<path d="M0 0 C1.98 0.495 1.98 0.495 4 1 C3.67 3.31 3.34 5.62 3 8 C2.01 7.67 1.02 7.34 0 7 C-1.125 2.25 -1.125 2.25 0 0 Z " fill="#5CAA40" transform="translate(145,247)"/>
<path d="M0 0 C4.08378283 0.74250597 8.01939223 1.82923301 12 3 C12 3.33 12 3.66 12 4 C10.20866022 4.05391993 8.41686101 4.09275571 6.625 4.125 C5.62726563 4.14820312 4.62953125 4.17140625 3.6015625 4.1953125 C1 4 1 4 -1 2 C-0.67 1.34 -0.34 0.68 0 0 Z " fill="#DE6273" transform="translate(329,73)"/>
<path d="M0 0 C0.99 0.33 1.98 0.66 3 1 C1.02 1.99 1.02 1.99 -1 3 C-1 3.66 -1 4.32 -1 5 C-1.66 5 -2.32 5 -3 5 C-3 5.66 -3 6.32 -3 7 C-4.98 7 -6.96 7 -9 7 C-8.443125 6.773125 -7.88625 6.54625 -7.3125 6.3125 C-4.36753316 4.64103234 -2.31843456 2.44723648 0 0 Z " fill="#409338" transform="translate(253,329)"/>
<path d="M0 0 C0.66 0 1.32 0 2 0 C2.33 0.66 2.66 1.32 3 2 C3.66 1.34 4.32 0.68 5 0 C5.66 0 6.32 0 7 0 C5.92598892 2.91517292 5.22189824 4.77810176 3 7 C0.64046906 4.64046906 0.50858587 3.22104383 0 0 Z " fill="#5DA84D" transform="translate(112,277)"/>
<path d="M0 0 C0.66 0.99 1.32 1.98 2 3 C-7.41002278 2.03644647 -7.41002278 2.03644647 -12 1 C-7.98030626 -1.84728306 -4.58256922 -0.96086129 0 0 Z " fill="#96A769" transform="translate(491,273)"/>
<path d="M0 0 C3.46528089 3.46528089 4.88505382 8.16086116 5.1875 13 C5.125625 13.66 5.06375 14.32 5 15 C3.25050228 12.37575342 2.34610019 10.44272784 1.375 7.5 C0.98441406 6.33984375 0.98441406 6.33984375 0.5859375 5.15625 C0 3 0 3 0 0 Z " fill="#85BA72" transform="translate(91,234)"/>
<path d="M0 0 C-0.11442461 1.60495567 -0.24194694 3.20898119 -0.375 4.8125 C-0.44460938 5.70582031 -0.51421875 6.59914062 -0.5859375 7.51953125 C-1 10 -1 10 -3 13 C-4.4480619 4.83502445 -4.4480619 4.83502445 -2.625 1.4375 C-1 0 -1 0 0 0 Z " fill="#8FA356" transform="translate(614,186)"/>
<path d="M0 0 C0.99 0.33 1.98 0.66 3 1 C1.02 3.97 -0.96 6.94 -3 10 C-4 6 -4 6 -3.0625 3.75 C-2.711875 3.1725 -2.36125 2.595 -2 2 C-1.34 2 -0.68 2 0 2 C0 1.34 0 0.68 0 0 Z " fill="#A6D581" transform="translate(147,109)"/>
<path d="M0 0 C1.65 0 3.3 0 5 0 C5 0.66 5 1.32 5 2 C5.969375 2.12375 6.93875 2.2475 7.9375 2.375 C9.4534375 2.684375 9.4534375 2.684375 11 3 C11.33 3.66 11.66 4.32 12 5 C6.92387682 5.61528766 4.17017994 3.61658349 0 1 C0 0.67 0 0.34 0 0 Z " fill="#9AD764" transform="translate(185,86)"/>
<path d="M0 0 C2.31 0 4.62 0 7 0 C1.85714286 4.42857143 1.85714286 4.42857143 -2 5 C-1.34 3.35 -0.68 1.7 0 0 Z " fill="#689F5B" transform="translate(276,321)"/>
<path d="M0 0 C0.99 0.33 1.98 0.66 3 1 C3 1.66 3 2.32 3 3 C4.65 3 6.3 3 8 3 C8 3.33 8 3.66 8 4 C3.545 4.495 3.545 4.495 -1 5 C-1 1 -1 1 0 0 Z " fill="#509E3F" transform="translate(195,289)"/>
<path d="M0 0 C0.103125 0.639375 0.20625 1.27875 0.3125 1.9375 C0.539375 2.618125 0.76625 3.29875 1 4 C1.99 4.33 2.98 4.66 4 5 C4 7.97 4 10.94 4 14 C-0.30769231 5.38461538 -0.30769231 5.38461538 0 0 Z " fill="#8DBE78" transform="translate(87,220)"/>
<path d="M0 0 C3.35111834 2.23407889 4.81553956 3.26215824 5.8125 7.25 C5.874375 8.1575 5.93625 9.065 6 10 C3.03595495 7.19195732 0.55500981 4.81684226 -1 1 C-0.67 0.67 -0.34 0.34 0 0 Z " fill="#9CAC75" transform="translate(386,138)"/>
<path d="M0 0 C1.32 0.33 2.64 0.66 4 1 C4 1.99 4 2.98 4 4 C4.99 4.33 5.98 4.66 7 5 C7.33 6.65 7.66 8.3 8 10 C4.71211176 6.88983545 2.16264012 3.98381075 0 0 Z " fill="#9BB16F" transform="translate(551,130)"/>
<path d="M0 0 C3.73884332 2.65654657 5.64978174 4.58110387 7 9 C6.01 9.33 5.02 9.66 4 10 C3.4465236 7.92446352 3 6.15634036 3 4 C2.01 3.67 1.02 3.34 0 3 C0 2.01 0 1.02 0 0 Z " fill="#8EA360" transform="translate(345,105)"/>
<path d="M0 0 C1.20409259 3.99930753 0.58887092 6.10726626 -1 10 C-1.9563874 11.69207001 -2.94410931 13.36816893 -4 15 C-5 13 -5 13 -4.00390625 9.9609375 C-3.52824219 8.77757813 -3.05257812 7.59421875 -2.5625 6.375 C-2.08941406 5.18648438 -1.61632812 3.99796875 -1.12890625 2.7734375 C-0.75636719 1.85820313 -0.38382812 0.94296875 0 0 Z " fill="#B3DB8A" transform="translate(101,88)"/>
<path d="M0 0 C1.65 0.33 3.3 0.66 5 1 C5.33 2.65 5.66 4.3 6 6 C4.68 5.67 3.36 5.34 2 5 C2 4.34 2 3.68 2 3 C1.01 2.67 0.02 2.34 -1 2 C-0.67 1.34 -0.34 0.68 0 0 Z " fill="#CA4051" transform="translate(325,81)"/>
<path d="M0 0 C0 3.23830467 -0.29194726 4.31591712 -2 7 C-4.625 9.25 -4.625 9.25 -7 11 C-7.66 10.67 -8.32 10.34 -9 10 C-6.03 6.7 -3.06 3.4 0 0 Z " fill="#BEE295" transform="translate(131,45)"/>
<path d="M0 0 C0.721875 0.144375 1.44375 0.28875 2.1875 0.4375 C-0.93871626 3.83167765 -3.37791027 6.0437718 -7.8125 7.4375 C-3.69871444 0.57535558 -3.69871444 0.57535558 0 0 Z " fill="#B6E274" transform="translate(155.8125,27.5625)"/>
<path d="M0 0 C1.32 0 2.64 0 4 0 C4 0.66 4 1.32 4 2 C5.65 2.33 7.3 2.66 9 3 C9.33 3.99 9.66 4.98 10 6 C8.35 5.67 6.7 5.34 5 5 C5 4.34 5 3.68 5 3 C2.525 2.01 2.525 2.01 0 1 C0 0.67 0 0.34 0 0 Z " fill="#72A56D" transform="translate(156,322)"/>
<path d="M0 0 C0.99 0 1.98 0 3 0 C3 0.99 3 1.98 3 3 C3.66 3 4.32 3 5 3 C5 3.99 5 4.98 5 6 C2.525 5.01 2.525 5.01 0 4 C0 2.68 0 1.36 0 0 Z " fill="#489B37" transform="translate(139,305)"/>
<path d="M0 0 C0.99 0 1.98 0 3 0 C2.60196439 2.88575819 2.20990931 3.82189513 -0.0625 5.75 C-0.701875 6.1625 -1.34125 6.575 -2 7 C-2.125 4.625 -2.125 4.625 -2 2 C-1.34 1.34 -0.68 0.68 0 0 Z " fill="#62A454" transform="translate(325,280)"/>
<path d="M0 0 C1.65 0 3.3 0 5 0 C1.24532309 3.05936637 -2.08113061 5 -7 5 C-6.67 4.01 -6.34 3.02 -6 2 C-4.02 2 -2.04 2 0 2 C0 1.34 0 0.68 0 0 Z " fill="#9BAA72" transform="translate(555,266)"/>
<path d="M0 0 C3 3.75 3 3.75 3 6 C3.99 6.33 4.98 6.66 6 7 C6 7.66 6 8.32 6 9 C4.125 8.6875 4.125 8.6875 2 8 C-0.1519437 4.77208445 -0.20086443 3.71599191 0 0 Z " fill="#87B972" transform="translate(149,248)"/>
<path d="M0 0 C1.5625 1.1875 1.5625 1.1875 3 3 C2.84946418 6.01071639 2.41319987 7.52068815 0.4375 9.8125 C-0.036875 10.204375 -0.51125 10.59625 -1 11 C-1 9.35 -1 7.7 -1 6 C-0.34 6 0.32 6 1 6 C0.67 4.02 0.34 2.04 0 0 Z " fill="#91BC69" transform="translate(375,215)"/>
<path d="M0 0 C2.49505962 2.49505962 2.35948376 3.67328888 2.625 7.125 C2.69976562 8.03507813 2.77453125 8.94515625 2.8515625 9.8828125 C2.92503906 10.93082031 2.92503906 10.93082031 3 12 C1.68 11.67 0.36 11.34 -1 11 C-0.835 10.29875 -0.67 9.5975 -0.5 8.875 C0.02415338 5.86111806 0.07099683 3.05286375 0 0 Z " fill="#6AB349" transform="translate(132,212)"/>
<path d="M0 0 C1.32 0.33 2.64 0.66 4 1 C0.535 3.97 0.535 3.97 -3 7 C-2.25 2.25 -2.25 2.25 0 0 Z " fill="#899B58" transform="translate(436,153)"/>
<path d="M0 0 C1.32 0.33 2.64 0.66 4 1 C1.36 2.98 -1.28 4.96 -4 7 C-4.33 6.01 -4.66 5.02 -5 4 C-4.360625 3.71125 -3.72125 3.4225 -3.0625 3.125 C-0.84793921 2.17176549 -0.84793921 2.17176549 0 0 Z " fill="#90A666" transform="translate(447,144)"/>
<path d="M0 0 C0.66 0.33 1.32 0.66 2 1 C1.67 3.64 1.34 6.28 1 9 C0.01 9 -0.98 9 -2 9 C-2.25 3.375 -2.25 3.375 0 0 Z " fill="#99D85B" transform="translate(306,77)"/>
<path d="M0 0 C-0.99 0.495 -0.99 0.495 -2 1 C-2.33 1.66 -2.66 2.32 -3 3 C-5.0625 3.625 -5.0625 3.625 -7 4 C-7 3.34 -7 2.68 -7 2 C-8.65 2.33 -10.3 2.66 -12 3 C-8.40198016 -0.59801984 -4.84291279 -0.09137571 0 0 Z " fill="#8A9F55" transform="translate(488,73)"/>
<path d="M0 0 C0.66 0.33 1.32 0.66 2 1 C-2.18461538 6.78461538 -2.18461538 6.78461538 -6.3125 7.875 C-7.6428125 7.936875 -7.6428125 7.936875 -9 8 C-6.17493137 5.0702992 -3.21203935 2.49825283 0 0 Z " fill="#C2E396" transform="translate(151,29)"/>
<path d="M0 0 C4.95 1.98 4.95 1.98 10 4 C5.59232396 5.10191901 4.1077065 4.58706842 0 3 C0 2.01 0 1.02 0 0 Z " fill="#C3EA92" transform="translate(241,19)"/>
<path d="M0 0 C1.32 0.33 2.64 0.66 4 1 C4 2.32 4 3.64 4 5 C4.66 5.33 5.32 5.66 6 6 C4.35 6.33 2.7 6.66 1 7 C0.67 4.69 0.34 2.38 0 0 Z " fill="#579E3E" transform="translate(168,273)"/>
<path d="M0 0 C2.375 0.25 2.375 0.25 5 1 C6.3125 3.0625 6.3125 3.0625 7 5 C5.33333333 5 3.66666667 5 2 5 C2 4.01 2 3.02 2 2 C1.34 2 0.68 2 0 2 C0 1.34 0 0.68 0 0 Z " fill="#74B061" transform="translate(152,257)"/>
<path d="M0 0 C1.2065625 0.0309375 1.2065625 0.0309375 2.4375 0.0625 C0.7875 2.0425 -0.8625 4.0225 -2.5625 6.0625 C-3.2225 5.0725 -3.8825 4.0825 -4.5625 3.0625 C-3.06867284 0.07484568 -3.06867284 0.07484568 0 0 Z " fill="#91A65E" transform="translate(589.5625,239.9375)"/>
<path d="M0 0 C3 1 3 1 5 4 C4.625 6.1875 4.625 6.1875 4 8 C2.35 6.02 0.7 4.04 -1 2 C-0.67 1.34 -0.34 0.68 0 0 Z " fill="#97AB67" transform="translate(401,227)"/>
<path d="M0 0 C3.72433382 1.2125738 7.37802806 2.50859979 11 4 C11 4.33 11 4.66 11 5 C8.03 4.67 5.06 4.34 2 4 C2 3.34 2 2.68 2 2 C1.34 2 0.68 2 0 2 C0 1.34 0 0.68 0 0 Z " fill="#8B9B5F" transform="translate(461,216)"/>
<path d="M0 0 C-0.66 1.65 -1.32 3.3 -2 5 C-2.99 5 -3.98 5 -5 5 C-5.66 3.68 -6.32 2.36 -7 1 C-4.50935112 0.31292445 -2.62113708 0 0 0 Z " fill="#7C9547" transform="translate(390,209)"/>
<path d="M0 0 C1.98 0.66 3.96 1.32 6 2 C6.33 3.65 6.66 5.3 7 7 C6.01 7 5.02 7 4 7 C4 6.01 4 5.02 4 4 C2.0624994 1.81222534 2.0624994 1.81222534 0 0 Z " fill="#5AA340" transform="translate(160,267)"/>
<path d="M0 0 C0.99 0 1.98 0 3 0 C3.144375 0.598125 3.28875 1.19625 3.4375 1.8125 C3.8872439 3.56150404 4.42892341 5.28677023 5 7 C4.5625 9.1875 4.5625 9.1875 4 11 C3.32880451 9.5437455 2.66318193 8.08492133 2 6.625 C1.62875 5.81289062 1.2575 5.00078125 0.875 4.1640625 C0 2 0 2 0 0 Z " fill="#97C182" transform="translate(96,249)"/>
<path d="M0 0 C2.0625 0.4375 2.0625 0.4375 4 1 C4 1.66 4 2.32 4 3 C3.01 3 2.02 3 1 3 C1.33 4.32 1.66 5.64 2 7 C-0.475 6.01 -0.475 6.01 -3 5 C-2.04937465 2.14812395 -1.8726173 1.8726173 0 0 Z " fill="#5EA842" transform="translate(349,248)"/>
<path d="M0 0 C0.99 0.33 1.98 0.66 3 1 C3 2.98 3 4.96 3 7 C2.34 7 1.68 7 1 7 C1 6.34 1 5.68 1 5 C0.34 5 -0.32 5 -1 5 C-0.67 3.35 -0.34 1.7 0 0 Z " fill="#5EB040" transform="translate(308,233)"/>
<path d="M0 0 C0.66 0.99 1.32 1.98 2 3 C1.0409375 3.1546875 1.0409375 3.1546875 0.0625 3.3125 C-0.618125 3.539375 -1.29875 3.76625 -2 4 C-2.33 4.99 -2.66 5.98 -3 7 C-4.32 6.67 -5.64 6.34 -7 6 C-4.69 4.02 -2.38 2.04 0 0 Z " fill="#98AB6C" transform="translate(550,214)"/>
<path d="M0 0 C3.37462715 0.54723683 5.08235 1.0549 8 3 C7.67 3.99 7.34 4.98 7 6 C1.125 2.25 1.125 2.25 0 0 Z " fill="#84974E" transform="translate(410,166)"/>
<path d="M0 0 C1.32 0.66 2.64 1.32 4 2 C1.03 3.65 -1.94 5.3 -5 7 C-4.67 5.68 -4.34 4.36 -4 3 C-2.68 3 -1.36 3 0 3 C0 2.01 0 1.02 0 0 Z " fill="#8FA765" transform="translate(464,131)"/>
<path d="M0 0 C2.64465038 3.1254959 3.84414715 6.08788267 5 10 C3.0625 9.5 3.0625 9.5 1 8 C0.31209578 5.30341548 0.18053536 2.7982981 0 0 Z " fill="#91A469" transform="translate(600,116)"/>
<path d="M0 0 C3.45925163 1.2491742 6.14693203 2.67527795 9 5 C5.95613276 5.08226668 3.92824652 4.97608217 1 4 C0.3125 1.9375 0.3125 1.9375 0 0 Z " fill="#9BB276" transform="translate(555,76)"/>
<path d="M0 0 C1.6254308 0.14095064 3.25034051 0.28792087 4.875 0.4375 C5.77992188 0.51871094 6.68484375 0.59992188 7.6171875 0.68359375 C10 1 10 1 12 2 C11.67 2.66 11.34 3.32 11 4 C7.37 3.01 3.74 2.02 0 1 C0 0.67 0 0.34 0 0 Z " fill="#93A461" transform="translate(539,72)"/>
<path d="M0 0 C2.88437779 1.29299694 4.87219421 2.65941363 7 5 C4.69 4.67 2.38 4.34 0 4 C0 2.68 0 1.36 0 0 Z " fill="#BDDE8A" transform="translate(218,51)"/>
<path d="M0 0 C1.9375 0.5625 1.9375 0.5625 4 2 C4.75 5.625 4.75 5.625 5 9 C2.9754262 7.06745228 1.57894208 5.36841312 0 3 C0 2.01 0 1.02 0 0 Z " fill="#B6E47D" transform="translate(213,44)"/>
<path d="M0 0 C8.57142857 1.85714286 8.57142857 1.85714286 12 5 C9.69 4.67 7.38 4.34 5 4 C5 3.34 5 2.68 5 2 C3.35 1.67 1.7 1.34 0 1 C0 0.67 0 0.34 0 0 Z " fill="#C1E794" transform="translate(267,33)"/>
<path d="M0 0 C3.625 -0.1875 3.625 -0.1875 7 0 C4.75 2.0625 4.75 2.0625 2 4 C-0.3125 3.75 -0.3125 3.75 -2 3 C-1.34 2.01 -0.68 1.02 0 0 Z " fill="#B4E767" transform="translate(179,18)"/>
<path d="M0 0 C0 0.66 0 1.32 0 2 C-4.455 2.495 -4.455 2.495 -9 3 C-8.01 2.67 -7.02 2.34 -6 2 C-6 1.34 -6 0.68 -6 0 C-3.50907189 -1.24546405 -2.58919267 -0.7767578 0 0 Z " fill="#91AA67" transform="translate(538,273)"/>
<path d="M0 0 C1 2 1 2 0.0625 5.125 C-0.288125 6.07375 -0.63875 7.0225 -1 8 C-2.32 7.67 -3.64 7.34 -5 7 C-4.34 6.67 -3.68 6.34 -3 6 C-2.65657551 4.66923011 -2.32380126 3.33568021 -2 2 C-1.34 1.34 -0.68 0.68 0 0 Z " fill="#65AC4D" transform="translate(363,233)"/>
<path d="M0 0 C3 2 3 2 3.6875 4.625 C3.790625 5.40875 3.89375 6.1925 4 7 C3.01 7 2.02 7 1 7 C0.34 6.34 -0.32 5.68 -1 5 C-0.625 2.375 -0.625 2.375 0 0 Z " fill="#60AE42" transform="translate(138,233)"/>
<path d="M0 0 C0.66 0 1.32 0 2 0 C5.34821429 6.96428571 5.34821429 6.96428571 4 11 C3.32880451 9.5437455 2.66318193 8.08492133 2 6.625 C1.62875 5.81289062 1.2575 5.00078125 0.875 4.1640625 C0 2 0 2 0 0 Z " fill="#96A66F" transform="translate(337,132)"/>
<path d="M0 0 C1.75 1.4375 1.75 1.4375 3 3 C0 5 0 5 -2.1875 4.625 C-2.785625 4.41875 -3.38375 4.2125 -4 4 C-4 3.01 -4 2.02 -4 1 C-2.1875 0.3125 -2.1875 0.3125 0 0 Z " fill="#8DD153" transform="translate(138,111)"/>
<path d="M0 0 C2.99324263 1.0975223 3.84610901 1.67682892 5.25 4.625 C5.4975 5.40875 5.745 6.1925 6 7 C4.02 6.01 2.04 5.02 0 4 C0 2.68 0 1.36 0 0 Z " fill="#8AA060" transform="translate(588,101)"/>
<path d="M0 0 C0.33 0.99 0.66 1.98 1 3 C-0.8125 6.1875 -0.8125 6.1875 -3 9 C-3.66 9 -4.32 9 -5 9 C-3.7508258 5.54074837 -2.32472205 2.85306797 0 0 Z " fill="#C1DA9E" transform="translate(121,56)"/>
<path d="M0 0 C0.66 0.33 1.32 0.66 2 1 C1.34 2.32 0.68 3.64 0 5 C-1.65 5 -3.3 5 -5 5 C-5 4.01 -5 3.02 -5 2 C-2.625 0.9375 -2.625 0.9375 0 0 Z " fill="#4EA13A" transform="translate(243,289)"/>
<path d="M0 0 C0.99 1.485 0.99 1.485 2 3 C2.66 2.01 3.32 1.02 4 0 C5 2 5 2 4.75 4.0625 C4.5025 4.701875 4.255 5.34125 4 6 C3.01 6.33 2.02 6.66 1 7 C0.67 4.69 0.34 2.38 0 0 Z " fill="#4B9F3A" transform="translate(312,288)"/>
<path d="M0 0 C3.63 0.66 7.26 1.32 11 2 C11 2.33 11 2.66 11 3 C7.7 3 4.4 3 1 3 C0.67 2.01 0.34 1.02 0 0 Z " fill="#96BE8C" transform="translate(197,289)"/>
<path d="M0 0 C1.98 0 3.96 0 6 0 C5.34 1.32 4.68 2.64 4 4 C2.68 3.67 1.36 3.34 0 3 C0 2.01 0 1.02 0 0 Z " fill="#5FA44C" transform="translate(329,273)"/>
<path d="M0 0 C0.33 0 0.66 0 1 0 C1 1.65 1 3.3 1 5 C1.99 5 2.98 5 4 5 C3.67 6.65 3.34 8.3 3 10 C0.64551835 7.44931155 0.01672076 6.28982642 -0.1875 2.75 C-0.125625 1.8425 -0.06375 0.935 0 0 Z " fill="#64AF44" transform="translate(91,228)"/>
<path d="M0 0 C4.21912747 0.4794463 6.79663178 1.16625119 10 4 C6.14354879 4.22036864 3.50776784 3.60355101 0 2 C0 1.34 0 0.68 0 0 Z " fill="#94A666" transform="translate(472,221)"/>
<path d="M0 0 C0.6875 1.8125 0.6875 1.8125 1 4 C-0.4375 5.75 -0.4375 5.75 -2 7 C-2.99 6.67 -3.98 6.34 -5 6 C-3.35 4.02 -1.7 2.04 0 0 Z " fill="#9AB172" transform="translate(556,207)"/>
<path d="M0 0 C0.66 0.99 1.32 1.98 2 3 C1.67 3.99 1.34 4.98 1 6 C-1.0625 6.6875 -1.0625 6.6875 -3 7 C-2.38722388 4.03824877 -1.74627478 2.61941217 0 0 Z " fill="#83B867" transform="translate(327,207)"/>
<path d="M0 0 C1.70884005 1.62339805 3.37446717 3.29319053 5 5 C5 5.66 5 6.32 5 7 C3.35 6.67 1.7 6.34 0 6 C0 4.02 0 2.04 0 0 Z " fill="#8C9E5C" transform="translate(371,137)"/>
<path d="M0 0 C1.65 0 3.3 0 5 0 C3.02 2.97 3.02 2.97 1 6 C-0.0625 4.125 -0.0625 4.125 -1 2 C-0.67 1.34 -0.34 0.68 0 0 Z " fill="#B1D68C" transform="translate(155,96)"/>
<path d="M0 0 C2.475 0.495 2.475 0.495 5 1 C5.33 2.65 5.66 4.3 6 6 C3.96166576 4.7260411 1.96147874 3.38938077 0 2 C0 1.34 0 0.68 0 0 Z " fill="#B44B56" transform="translate(344,92)"/>
<path d="M0 0 C1.98 0.495 1.98 0.495 4 1 C3.67 2.65 3.34 4.3 3 6 C1.68 6.33 0.36 6.66 -1 7 C-0.67 6.01 -0.34 5.02 0 4 C0.66 4 1.32 4 2 4 C2 3.01 2 2.02 2 1 C1.34 0.67 0.68 0.34 0 0 Z " fill="#C76B75" transform="translate(361,83)"/>
<path d="M0 0 C0.66 0.33 1.32 0.66 2 1 C0.68 2.32 -0.64 3.64 -2 5 C-3.32 4.34 -4.64 3.68 -6 3 C-4.03533587 1.93224776 -2.03144641 0.93446535 0 0 Z " fill="#92A661" transform="translate(465,79)"/>
<path d="M0 0 C7.50769231 -0.36923077 7.50769231 -0.36923077 10 1.5 C10.495 2.2425 10.495 2.2425 11 3 C6.94393835 2.53199289 3.53411321 2.12046792 0 0 Z " fill="#C3E887" transform="translate(224,48)"/>
<path d="M0 0 C-1.0975223 2.99324263 -1.67682892 3.84610901 -4.625 5.25 C-5.40875 5.4975 -6.1925 5.745 -7 6 C-3.61538462 0 -3.61538462 0 0 0 Z " fill="#AFDF6D" transform="translate(137,43)"/>
<path d="M0 0 C2.69725519 1.88807863 4.13216429 3.19824644 6 6 C3.03 5.505 3.03 5.505 0 5 C0 3.35 0 1.7 0 0 Z " fill="#5CA145" transform="translate(105,264)"/>
<path d="M0 0 C0.66 0.33 1.32 0.66 2 1 C1.67 2.32 1.34 3.64 1 5 C-0.65 5 -2.3 5 -4 5 C-3 2 -3 2 0 0 Z " fill="#5CAC41" transform="translate(356,241)"/>
<path d="M0 0 C0.66 0.99 1.32 1.98 2 3 C0.35 4.32 -1.3 5.64 -3 7 C-3.66 6.67 -4.32 6.34 -5 6 C-3.35 4.02 -1.7 2.04 0 0 Z " fill="#7FB56A" transform="translate(303,237)"/>
<path d="M0 0 C1.32 0.33 2.64 0.66 4 1 C3.67 3.31 3.34 5.62 3 8 C1.0549 5.08235 0.54723683 3.37462715 0 0 Z " fill="#96AA66" transform="translate(562,146)"/>
<path d="M0 0 C1.32 0 2.64 0 4 0 C3.67 1.65 3.34 3.3 3 5 C2.01 4.67 1.02 4.34 0 4 C0 2.68 0 1.36 0 0 Z " fill="#A5E05B" transform="translate(305,53)"/>
</svg>
